<?xml version="1.0" encoding="UTF-8" standalone="no"?>
<svg
   xmlns:dc="http://purl.org/dc/elements/1.1/"
   xmlns:cc="http://creativecommons.org/ns#"
   xmlns:rdf="http://www.w3.org/1999/02/22-rdf-syntax-ns#"
   xmlns:svg="http://www.w3.org/2000/svg"
   xmlns="http://www.w3.org/2000/svg"
   xmlns:sodipodi="http://sodipodi.sourceforge.net/DTD/sodipodi-0.dtd"
   xmlns:inkscape="http://www.inkscape.org/namespaces/inkscape"
   width="576pt"
   height="357pt"
   viewBox="0 0 576 357"
   version="1.1"
   id="svg30"
   sodipodi:docname="logo.svg"
   inkscape:version="1.0.1 (3bc2e813f5, 2020-09-07)">
  <metadata
     id="metadata34">
    <rdf:RDF>
      <cc:Work
         rdf:about="">
        <dc:format>image/svg+xml</dc:format>
        <dc:type
           rdf:resource="http://purl.org/dc/dcmitype/StillImage" />
        <dc:title />
      </cc:Work>
    </rdf:RDF>
  </metadata>
  <sodipodi:namedview
     pagecolor="#ffffff"
     bordercolor="#666666"
     borderopacity="1"
     objecttolerance="10"
     gridtolerance="10"
     guidetolerance="10"
     inkscape:pageopacity="0"
     inkscape:pageshadow="2"
     inkscape:window-width="1920"
     inkscape:window-height="1021"
     id="namedview32"
     showgrid="false"
     inkscape:zoom="1.5231092"
     inkscape:cx="416.70449"
     inkscape:cy="312.4764"
     inkscape:window-x="1920"
     inkscape:window-y="0"
     inkscape:window-maximized="1"
     inkscape:current-layer="layer1"
     inkscape:document-rotation="0" />
  <defs
     id="defs11">
    <rect
       x="99.566048"
       y="204.45022"
       width="75.043936"
       height="37.226472"
       id="rect869" />
    <clipPath
       id="clip1">
      <path
         d="M 0 355 L 576 355 L 576 356.160156 L 0 356.160156 Z M 0 355 "
         id="path2" />
    </clipPath>
    <clipPath
       id="clip2">
      <path
         d="M 0 0 L 1 0 L 1 356.160156 L 0 356.160156 Z M 0 0 "
         id="path5" />
    </clipPath>
    <clipPath
       id="clip3">
      <path
         d="M 575 0 L 576 0 L 576 356.160156 L 575 356.160156 Z M 575 0 "
         id="path8" />
    </clipPath>
    <clipPath
       id="clip1-3">
      <path
         d="M 0.960938 8 L 575.039062 8 L 575.039062 320 L 0.960938 320 Z M 0.960938 8 "
         id="path932" />
    </clipPath>
    <clipPath
       id="clip2-6">
      <path
         d="M 0 354 L 576 354 L 576 356.878906 L 0 356.878906 Z M 0 354 "
         id="path935" />
    </clipPath>
    <clipPath
       id="clip3-7">
      <path
         d="M 0 0 L 3 0 L 3 356.878906 L 0 356.878906 Z M 0 0 "
         id="path938-5" />
    </clipPath>
    <clipPath
       id="clip4">
      <path
         d="M 573 0 L 576 0 L 576 356.878906 L 573 356.878906 Z M 573 0 "
         id="path941" />
    </clipPath>
  </defs>
  <g
     inkscape:groupmode="layer"
     id="layer2"
     inkscape:label="dots">
    <g
       id="surface91"
       transform="matrix(1.1655874,0,0,1.1655874,193.14153,1.9146669)">
      <path
         style="fill:#ca3a33;fill-opacity:1;fill-rule:nonzero;stroke:none"
         d="m 150.89844,225 c 0,41.42187 -33.57813,75 -75.000002,75 -41.421876,0 -75,-33.57813 -75,-75 0,-41.42188 33.578124,-75 75,-75 41.421872,0 75.000002,33.57812 75.000002,75"
         id="path936" />
      <path
         style="fill:#389723;fill-opacity:1;fill-rule:nonzero;stroke:none"
         d="m 237.5,75 c 0,41.42188 -33.57813,75 -75,75 -41.42187,0 -75,-33.57812 -75,-75 0,-41.421875 33.57813,-75 75,-75 41.42187,0 75,33.578125 75,75"
         id="path938" />
      <path
         style="fill:#9457b0;fill-opacity:1;fill-rule:nonzero;stroke:none"
         d="m 324.10156,225 c 0,41.42187 -33.57812,75 -75,75 -41.42187,0 -75,-33.57813 -75,-75 0,-41.42188 33.57813,-75 75,-75 41.42188,0 75,33.57812 75,75"
         id="path940" />
    </g>
  </g>
  <g
     inkscape:groupmode="layer"
     id="layer1"
     inkscape:label="plot">
    <g
       id="surface44"
       transform="matrix(0.99677046,0,0,0.99749922,3.6643153e-4,-3.6656545e-4)">
      <g
         clip-path="url(#clip1-3)"
         clip-rule="nonzero"
         id="g948">
        <path
           style="fill:none;stroke:#000000;stroke-width:2;stroke-linecap:square;stroke-linejoin:miter;stroke-miterlimit:3.25;stroke-opacity:1"
           d="m 1,178.375 0.175781,-5.35938 0.175781,-5.33203 0.351563,-10.5664 0.707031,-20.625 0.175782,-5.02344 0.175781,-4.96094 0.351562,-9.71484 0.703125,-18.496095 0.175782,-4.40625 0.175781,-4.3125 L 4.519531,81.25 4.695312,77.242188 4.871094,73.34375 l 0.355468,-7.464844 0.175782,-3.554687 0.175781,-3.4375 0.351563,-6.5 0.175781,-3.058594 0.175781,-2.929687 0.351562,-5.457032 0.175782,-2.527344 0.175781,-2.386718 0.175781,-2.25 0.175782,-2.105469 0.175781,-1.964844 0.179687,-1.820312 0.175782,-1.671875 0.175781,-1.527344 0.175781,-1.382812 0.175781,-1.234376 0.175781,-1.085937 0.175782,-0.9375 0.175781,-0.785156 0.175781,-0.640625 0.175782,-0.488282 0.175781,-0.339843 0.175781,-0.191407 0.175781,-0.04297 0.175781,0.101562 0.179688,0.253906 0.175781,0.398438 0.175781,0.542969 0.175782,0.6875 0.175781,0.832031 0.175781,0.972656 0.175782,1.113282 0.175781,1.25 0.175781,1.390624 0.175781,1.523438 0.175781,1.660156 0.351563,3.707032 0.191406,2.222656 0.191407,2.371094 0.382812,5.167968 0.191406,2.789063 0.1875,2.921875 0.382813,6.226562 0.191406,3.296875 0.191406,3.414063 0.382813,7.164062 0.761718,15.546875 0.191407,4.113281 0.191406,4.191407 0.378906,8.613283 0.765625,17.98047 1.527344,37.83594 0.191406,4.80468 0.1875,4.80469 0.382813,9.58203 0.765625,18.92969 0.1875,4.65234 0.191406,4.61328 0.382812,9.08204 0.765626,17.46093 0.1875,4.19141 0.191406,4.11719 0.382812,7.98437 0.191406,3.85938 0.191407,3.76562 0.378906,7.23438 0.191406,3.46484 0.191407,3.35938 0.382812,6.3789 0.191406,3.01563 0.191406,2.89843 0.378907,5.42969 0.179687,2.35938 0.175782,2.25 0.179687,2.13672 0.179687,2.01953 0.175782,1.90625 0.179687,1.78515 0.355469,3.21094 0.179688,1.42188 0.175781,1.30078 0.179687,1.17968 0.179688,1.05469 0.175781,0.92969 0.179687,0.80469 0.179688,0.67968 0.175781,0.5586 0.179688,0.42969 0.175781,0.30468 0.179688,0.17969 0.179687,0.0586 0.175781,-0.0703 0.179688,-0.1914 0.179687,-0.3125 0.175781,-0.4375 0.179688,-0.5586 0.175781,-0.67969 0.179688,-0.79687 0.179687,-0.91406 0.175782,-1.03125 0.179687,-1.14844 0.175781,-1.25781 0.179688,-1.375 0.179687,-1.48047 0.175781,-1.59375 0.359376,-3.5 0.175781,-1.90235 0.179687,-2.0039 0.355469,-4.30078 0.179687,-2.29297 0.175782,-2.38281 0.359375,-5.02735 0.710937,-11.01953 0.179688,-2.94141 0.175781,-3.00781 0.359375,-6.20703 0.710938,-13.09375 1.425781,-28.14453 0.175781,-3.5625 0.171875,-3.57813 0.351563,-7.18359 0.699218,-14.39062 1.398438,-28.15235 0.171875,-3.39844 0.175781,-3.36328 0.347656,-6.60156 0.699219,-12.64062 0.175781,-3.02344 0.175782,-2.96875 0.347656,-5.75391 0.699218,-10.69531 0.175782,-2.49219 0.175781,-2.41797 0.347656,-4.597654 0.175781,-2.179688 0.175782,-2.09375 0.347656,-3.929688 0.175781,-1.835937 0.171875,-1.746094 0.175782,-1.65625 0.175781,-1.5625 0.175781,-1.472656 0.171875,-1.375 0.351563,-2.472656 0.171874,-1.089844 0.175782,-0.996094 0.175781,-0.898437 0.175781,-0.800782 0.171875,-0.703124 0.175781,-0.601563 0.175782,-0.507813 0.175781,-0.40625 0.171875,-0.308593 0.175781,-0.210938 0.175781,-0.113281 0.171876,-0.01563 0.175781,0.08594 0.175781,0.179688 0.175781,0.277344 0.171875,0.371094 0.191406,0.511718 0.1875,0.621094 0.191407,0.734375 0.1875,0.839844 0.191406,0.949219 0.1875,1.054687 0.191406,1.160156 0.191407,1.261719 0.1875,1.363281 0.191406,1.460938 0.378906,3.210937 0.1875,1.746094 0.191406,1.839844 0.378906,3.9375 0.1875,2.09375 0.191407,2.175781 0.378906,4.582039 0.757813,10.01172 0.1875,2.66406 0.191406,2.72265 0.378906,5.60157 0.757812,11.75781 0.1875,3.03515 0.191407,3.06641 0.378906,6.21484 0.757813,12.66016 1.515624,25.46875 0.191407,3.12891 0.1875,3.10937 0.378906,6.14063 0.757813,11.86718 0.191406,2.86329 0.1875,2.8164 0.378906,5.48438 0.757812,10.28125 0.179688,2.2539 0.175781,2.19532 0.355469,4.21093 0.175781,2.01172 0.175781,1.94141 0.355469,3.6875 0.175781,1.73828 0.175782,1.66797 0.355468,3.11719 0.175782,1.44921 0.175781,1.3711 0.355469,2.51172 0.175781,1.13672 0.175781,1.05859 0.179688,0.98047 0.175781,0.89453 0.175781,0.82031 0.179688,0.73438 0.175781,0.65234 0.175781,0.57031 0.175782,0.48828 0.179687,0.40625 0.175781,0.32422 0.175782,0.24219 0.179687,0.16016 0.175781,0.0742 0.175782,-0.004 0.175781,-0.0898 0.179687,-0.16797 0.175782,-0.25 0.175781,-0.33203 0.175781,-0.41016 0.179688,-0.48828 0.175781,-0.56641 0.175781,-0.64453 0.179688,-0.72266 0.175781,-0.79687 0.175781,-0.87109 0.175781,-0.94532 0.179688,-1.01562 0.175781,-1.08985 0.175781,-1.15625 0.355469,-2.52343 0.175781,-1.35938 0.175781,-1.42187 0.355469,-3.03125 0.707031,-6.76563 0.175782,-1.82422 0.179687,-1.875 0.351563,-3.89453 0.707031,-8.30078 0.191406,-2.35547 0.191407,-2.39453 0.386718,-4.89453 0.765625,-10.14063 1.53125,-21.03515 0.191407,-2.64063 0.195312,-2.63672 0.382812,-5.24609 0.765626,-10.28516 1.53125,-19.17187 0.195312,-2.21875 0.191406,-2.16797 0.382813,-4.1875 0.191406,-2.01172 0.191406,-1.95703 0.382813,-3.74219 0.191406,-1.77734 0.191406,-1.71484 0.382813,-3.23438 0.191406,-1.51562 0.191406,-1.44922 0.386719,-2.67969 0.191406,-1.23437 0.191406,-1.16016 0.191407,-1.08203 0.191406,-1.01172 0.191406,-0.93359 0.191407,-0.85547 0.191406,-0.77735 0.191406,-0.69922 0.191406,-0.62109 0.191406,-0.54297 0.191407,-0.46094 0.191406,-0.38671 0.191406,-0.30469 0.195313,-0.22266 0.191406,-0.14844 0.191406,-0.0664 0.1875,0.0117 0.1875,0.0898 0.1875,0.16016 0.1875,0.23828 0.191406,0.3125 0.1875,0.38281 0.1875,0.46094 0.1875,0.53125 0.1875,0.60156 0.1875,0.67188 0.191407,0.73828 0.1875,0.8125 0.1875,0.875 0.1875,0.94531 0.375,2.07812 0.191406,1.13282 0.1875,1.19531 0.375,2.5625 0.753906,5.78516 0.1875,1.57421 0.1875,1.6211 0.378907,3.37109 0.75,7.23047 0.1875,1.89453 0.191406,1.92578 0.375,3.9375 0.753906,8.14844 1.503906,16.90234 0.1875,2.12891 0.1875,2.12109 0.378906,4.21875 0.75,8.28516 1.507813,15.50781 0.175781,1.6836 0.175782,1.64843 0.351562,3.19532 0.175781,1.54296 0.171875,1.50782 0.351563,2.89843 0.175781,1.39063 0.175781,1.34375 0.351563,2.56641 0.175781,1.21484 0.175781,1.16797 0.351563,2.19531 0.175781,1.02734 0.175781,0.97657 0.175781,0.92578 0.175782,0.8789 0.175781,0.82422 0.171875,0.77344 0.351562,1.39063 0.175782,0.61328 0.175781,0.5625 0.175781,0.50781 0.175782,0.45703 0.175781,0.39844 0.175781,0.34765 0.17578,0.28907 0.17578,0.23828 0.17578,0.17969 0.17579,0.1289 0.17578,0.0742 0.17578,0.0195 0.17578,-0.0352 0.17187,-0.0898 0.17579,-0.14062 0.17578,-0.19922 0.17578,-0.2461 0.17578,-0.30078 0.17578,-0.35547 0.17578,-0.40234 0.17578,-0.45703 0.17578,-0.50391 0.17579,-0.55468 0.17578,-0.60547 0.17578,-0.64844 0.17578,-0.69922 0.35156,-1.53906 0.17578,-0.83594 0.17188,-0.87891 0.35156,-1.89062 0.17578,-1.00391 0.17578,-1.04687 0.35157,-2.20313 0.70312,-4.83984 0.19141,-1.40234 0.1875,-1.4336 0.38281,-2.97265 0.76172,-6.29297 1.51953,-13.5625 0.19141,-1.75 0.1914,-1.75782 0.37891,-3.51953 0.76172,-7.03125 1.52343,-13.59765 0.19141,-1.6211 0.19141,-1.60156 0.3789,-3.11719 0.76172,-5.89453 0.19141,-1.39453 0.1875,-1.35937 0.38281,-2.60547 0.76172,-4.73438 0.1875,-1.07812 0.19141,-1.03516 0.38281,-1.92969 0.1875,-0.89843 0.1914,-0.84766 0.38282,-1.55078 0.1875,-0.70313 0.1914,-0.64843 0.19141,-0.60157 0.1875,-0.55078 0.19141,-0.49609 0.1914,-0.44922 0.19141,-0.39453 0.1875,-0.33985 0.17969,-0.27343 0.17578,-0.22657 0.17968,-0.17968 0.17579,-0.13672 0.17968,-0.0898 0.17578,-0.043 0.17969,0.004 0.17578,0.0469 0.17969,0.0898 0.17578,0.13672 0.17969,0.18359 0.17578,0.22657 0.17969,0.26953 0.17578,0.3125 0.17969,0.35547 0.17578,0.39843 0.17969,0.4375 0.17578,0.48438 0.17968,0.51953 0.17579,0.5625 0.17968,0.60156 0.17578,0.64063 0.35547,1.39062 0.17969,0.75391 0.17578,0.78515 0.35547,1.67579 0.71094,3.73828 0.17969,1.01172 0.17578,1.03515 0.35547,2.15235 0.71093,4.58593 1.42188,10.04688 2.84375,21.34375 0.17187,1.27344 0.17578,1.26562 0.34766,2.48828 0.69922,4.80469 0.17187,1.16016 0.17578,1.14062 0.34766,2.21484 0.69531,4.16797 0.17578,0.98047 0.17188,0.95313 0.35156,1.82812 0.17188,0.8711 0.17578,0.83984 0.34765,1.59766 0.17579,0.75 0.17187,0.72265 0.34766,1.34375 0.17578,0.625 0.17578,0.58985 0.34766,1.07812 0.17187,0.48828 0.17578,0.45313 0.17578,0.41797 0.17188,0.38281 0.17578,0.34765 0.17187,0.3125 0.17579,0.27735 0.17578,0.24219 0.17187,0.20312 0.17578,0.16797 0.17188,0.13281 0.17578,0.0977 0.17578,0.0586 0.17188,0.0273 0.17578,-0.0117 0.17187,-0.0469 0.17578,-0.082 0.17188,-0.11719 0.17578,-0.15234 0.17578,-0.1875 0.17188,-0.22266 0.17578,-0.2539 0.17187,-0.28907 0.17578,-0.32421 0.17578,-0.35547 0.17188,-0.38672 0.17578,-0.41797 0.17188,-0.45313 0.17578,-0.48046 0.17578,-0.51563 0.34765,-1.11328 0.1875,-0.65234 0.19141,-0.6875 0.375,-1.46485 0.75781,-3.28515 0.1875,-0.89063 0.19141,-0.91406 0.375,-1.90235 0.75781,-4.05859 0.1875,-1.05859 0.19141,-1.07813 0.3789,-2.19531 0.75391,-4.53125 1.51172,-9.33984 0.19141,-1.16797 0.1875,-1.16797 0.3789,-2.3125 0.75391,-4.53125 0.1914,-1.10547 0.1875,-1.09375 0.37891,-2.14063 0.75391,-4.08203 0.1914,-0.96875 0.1875,-0.94922 0.37891,-1.83203 0.1875,-0.88281 0.19141,-0.85547 0.375,-1.63281 0.1914,-0.77344 0.1875,-0.75 0.37891,-1.41015 0.1875,-0.66016 0.1914,-0.63281 0.37891,-1.16797 0.17578,-0.5 0.17578,-0.47266 0.17578,-0.44531 0.17579,-0.41406 0.17578,-0.39063 0.17578,-0.35547 0.17969,-0.32812 0.17578,-0.30078 0.17578,-0.26563 0.17578,-0.24219 0.17578,-0.20703 0.17578,-0.17968 0.17578,-0.14844 0.17969,-0.11719 0.17578,-0.0859 0.17578,-0.0586 0.17578,-0.0273 h 0.17579 l 0.17578,0.0352 0.17578,0.0586 0.17969,0.0937 0.17578,0.12109 0.17578,0.14844 0.17578,0.17968 0.17578,0.20704 0.17578,0.23828 0.17969,0.26172 0.17578,0.29296 0.17578,0.32032 0.17578,0.34375 0.35157,0.77343 0.17578,0.42188 0.17968,0.44922 0.35157,0.97265 0.17578,0.51954 0.17578,0.54296 0.35156,1.15625 0.17969,0.60938 0.17578,0.62891 0.35156,1.3164 0.70703,2.85156 0.17579,0.75391 0.17578,0.76563 0.35156,1.57812 0.70703,3.29688 1.41016,6.98437 0.38281,1.9375 0.38281,1.94531 0.76563,3.86328 0.1875,0.95313 0.1914,0.94922 0.38282,1.875 0.76562,3.6289 0.19141,0.87891 0.1914,0.86328 0.38282,1.67969 0.76562,3.16016 0.1875,0.74218 0.19141,0.72266 0.38281,1.37891 0.76562,2.48828 0.19141,0.5625 0.19141,0.53515 0.38281,0.9961 0.19141,0.45703 0.1914,0.42969 0.38281,0.78125 0.1875,0.35156 0.19141,0.32031 0.19141,0.28906 0.1914,0.26563 0.19141,0.23437 0.19141,0.20703 0.1914,0.17579 0.19141,0.14843 0.1914,0.11719 0.19141,0.0898 0.19141,0.0625 0.1914,0.0312 0.19141,0.004 0.19141,-0.0273 0.1914,-0.0547 0.19141,-0.082 0.1914,-0.10938 0.1875,-0.14062 0.19141,-0.16797 0.19141,-0.19141 0.1914,-0.22265 0.19141,-0.2461 0.19141,-0.27734 0.1914,-0.30078 0.1875,-0.32031 0.1875,-0.34375 0.375,-0.75782 0.1875,-0.41406 0.1875,-0.4375 0.375,-0.93359 0.1875,-0.5 0.19141,-0.51953 0.375,-1.09766 0.75,-2.40234 0.1875,-0.64063 0.1875,-0.65234 0.375,-1.35157 0.75,-2.83984 1.5,-6.06641 0.1914,-0.77734 0.1875,-0.77734 0.375,-1.5625 0.75,-3.10938 0.1875,-0.76953 0.1875,-0.76172 0.375,-1.51172 0.75,-2.93359 0.1875,-0.71094 0.1875,-0.69922 0.375,-1.36328 0.75391,-2.57031 0.1875,-0.60547 0.1875,-0.59375 0.375,-1.12891 0.75,-2.05468 0.17578,-0.4336 0.17578,-0.42187 0.34766,-0.78516 0.17578,-0.36328 0.17578,-0.34766 0.34766,-0.64062 0.17578,-0.29297 0.17578,-0.27344 0.17578,-0.25 0.17578,-0.23437 0.17188,-0.21485 0.17578,-0.19531 0.17578,-0.17578 0.17578,-0.15625 0.17578,-0.13672 0.17188,-0.11719 0.17578,-0.0937 0.17578,-0.0781 0.17578,-0.0547 0.17578,-0.0352 0.17188,-0.0156 0.17578,0.004 0.17578,0.0234 0.17578,0.043 0.17578,0.0625 0.17188,0.0781 0.17578,0.10156 0.17578,0.12109 0.17578,0.14063 0.17578,0.15625 0.17578,0.17578 0.17188,0.19531 0.17578,0.21094 0.17578,0.23047 0.17578,0.25 0.17578,0.26562 0.34766,0.57813 0.17578,0.31641 0.17578,0.32812 0.34766,0.70703 0.70312,1.58985 0.17188,0.42968 0.17578,0.44141 0.35156,0.92578 0.69922,1.97656 1.39844,4.36719 0.19141,0.625 0.1914,0.62891 0.37891,1.26953 0.75781,2.57422 1.51953,5.1289 0.19141,0.625 0.1875,0.6211 0.3789,1.22265 0.76172,2.34766 0.1875,0.5625 0.19141,0.55469 0.37891,1.07422 0.76171,1.99609 0.1875,0.46484 0.19141,0.45313 0.37891,0.85937 0.1914,0.40625 0.1875,0.39063 0.37891,0.73047 0.19141,0.33984 0.1914,0.32031 0.1875,0.3086 0.19141,0.28515 0.1875,0.26953 0.1914,0.25391 0.19141,0.23047 0.1875,0.21484 0.19141,0.19532 0.1875,0.17968 0.1914,0.15625 0.19141,0.14063 0.1875,0.11719 0.19141,0.10156 0.1875,0.082 0.1914,0.0625 0.19141,0.043 0.1875,0.0234 0.1914,0.004 0.1875,-0.0156 0.19141,-0.0312 0.19141,-0.0547 0.1875,-0.0703 0.1914,-0.0898 0.17578,-0.0977 0.17579,-0.11719 0.17968,-0.13281 0.17578,-0.14453 0.17969,-0.16407 0.17578,-0.17578 0.35547,-0.40234 0.17578,-0.21875 0.17578,-0.23828 0.35547,-0.51172 0.17578,-0.27735 0.17969,-0.28906 0.35156,-0.61328 0.17969,-0.32812 0.17578,-0.33594 0.35547,-0.71094 0.70703,-1.53906 0.17969,-0.40625 0.17578,-0.41797 0.35547,-0.85938 0.70703,-1.79687 0.17969,-0.46484 0.17578,-0.46875 0.35547,-0.95313 0.70703,-1.94531 1.41797,-3.94141 0.17578,-0.49219 0.17969,-0.48437 0.35156,-0.96484 0.71094,-1.88282 1.41797,-3.48437 0.1914,-0.4336 0.19141,-0.42578 0.38281,-0.8164 0.19141,-0.39063 0.19531,-0.3789 0.38281,-0.72266 0.19141,-0.33984 0.19141,-0.33204 0.38671,-0.61328 0.19141,-0.28906 0.19141,-0.26953 0.38281,-0.50391 0.19141,-0.22656 0.1914,-0.21484 0.19531,-0.19532 0.19141,-0.18359 0.19141,-0.16406 0.1914,-0.15235 0.19141,-0.13281 0.19141,-0.12109 0.1914,-0.10156 0.19531,-0.0859 0.19141,-0.0703 0.19141,-0.0547 0.1914,-0.0391 0.19141,-0.0234 0.19141,-0.008 0.19531,0.0117 0.1914,0.0234 0.19141,0.043 0.19141,0.0547 0.1914,0.0742 0.19141,0.0859 0.19141,0.10547 0.19531,0.11719 0.1914,0.13281 0.19141,0.14844 0.19141,0.16016 0.1914,0.17968 0.19141,0.1875 0.19141,0.20313 0.19531,0.21875 0.38281,0.47266 0.19141,0.25781 0.1914,0.26562 0.38672,0.57422 0.76563,1.26953 0.1914,0.34375 0.19141,0.35157 0.38672,0.73046 0.76562,1.54688 0.19141,0.39844 0.1875,0.39843 0.375,0.82032 0.75391,1.67578 1.50781,3.43359 0.1914,0.42578 0.1875,0.42578 0.375,0.84375 0.75391,1.64454 0.19141,0.40234 0.1875,0.39453 0.375,0.77344 0.7539,1.46484 0.19141,0.34766 0.1875,0.33984 0.375,0.65235 0.19141,0.3125 0.1875,0.30468 0.3789,0.57422 0.1875,0.27344 0.1875,0.26562 0.37891,0.49219 0.1875,0.23047 0.1875,0.21875 0.3789,0.40234 0.1875,0.1875 0.1875,0.17188 0.1875,0.15625 0.19141,0.14844 0.1875,0.13672 0.1875,0.12109 0.1875,0.11328 0.19141,0.0977 0.1875,0.082 0.1875,0.0742 0.1875,0.0586 0.1914,0.0469 0.1875,0.0352 0.1875,0.0234 0.1875,0.008 0.19141,-0.004 0.17578,-0.0156 0.17578,-0.0234 0.17578,-0.0352 0.17578,-0.0508 0.17579,-0.0547 0.17578,-0.0703 0.17578,-0.0781 0.17578,-0.0898 0.17578,-0.0977 0.17578,-0.10937 0.17578,-0.1211 0.17578,-0.1289 0.17579,-0.13672 0.17578,-0.14844 0.35156,-0.32422 0.17578,-0.17578 0.17578,-0.18359 0.35156,-0.39454 0.70313,-0.88281 0.17578,-0.24219 0.17578,-0.24609 0.35156,-0.51172 0.70313,-1.09765 0.17578,-0.28516 0.17578,-0.29297 0.35156,-0.59766 0.70313,-1.24218 1.40625,-2.59375 0.17969,-0.32813 0.52734,-0.98437 0.70313,-1.30078 1.40625,-2.48047 0.1914,-0.32032 0.1875,-0.3125 0.38281,-0.60937 0.76172,-1.14063 0.19141,-0.26953 0.19141,-0.25781 0.3789,-0.49609 0.19141,-0.23438 0.1914,-0.23047 0.38282,-0.42578 0.1914,-0.19922 0.1875,-0.1914 0.19141,-0.1836 0.19141,-0.17187 0.1914,-0.16016 0.19141,-0.15234 0.3789,-0.27344 0.19141,-0.12109 0.19141,-0.11328 0.1914,-0.10157 0.1875,-0.0898 0.19141,-0.0781 0.19141,-0.0703 0.1914,-0.0586 0.19141,-0.0469 0.1875,-0.0391 0.1914,-0.0273 0.19141,-0.0156 0.19141,-0.004 0.1914,0.004 0.1875,0.0156 0.19141,0.0234 0.19141,0.0391 0.1914,0.0469 0.19141,0.0547 0.1914,0.0664 0.1875,0.0781 0.19141,0.0859 0.19141,0.0977 0.1914,0.10547 0.19141,0.11719 0.1875,0.125 0.19141,0.13281 0.38281,0.29297 0.1914,0.16016 0.1875,0.16797 0.38282,0.35937 0.1914,0.19141 0.19141,0.19922 0.37891,0.42187 0.76171,0.91406 0.35938,0.46094 0.35547,0.47656 0.71094,1 1.42578,2.11719 0.17578,0.27344 0.17969,0.27344 1.0664,1.6289 1.42578,2.09766 0.17578,0.25 0.17969,0.25 0.35547,0.48437 0.71094,0.91797 0.17969,0.21875 0.17578,0.21094 0.35937,0.41406 0.71094,0.75391 0.17578,0.17578 0.17969,0.16406 0.35547,0.31641 0.17968,0.14844 0.17579,0.14453 0.35546,0.26172 0.17969,0.12109 0.17969,0.11328 0.17578,0.10547 0.17969,0.0977 0.17578,0.0937 0.17969,0.082 0.17578,0.0781 0.17969,0.0703 0.17578,0.0586 0.17187,0.0547 0.17578,0.0469 0.17578,0.0391 0.17188,0.0312 0.17578,0.0234 0.17578,0.0195 0.17188,0.008 0.17578,0.004 0.17578,-0.004 0.17187,-0.0117 0.17579,-0.0195 0.17578,-0.0273 0.17187,-0.0312 0.17578,-0.043 0.17578,-0.0469 0.17188,-0.0547 0.17578,-0.0586 0.17578,-0.0664 0.17578,-0.0742 0.17188,-0.082 0.17578,-0.0859 0.34766,-0.19531 0.17578,-0.10547 0.17578,-0.11328 0.34765,-0.24219 0.17579,-0.1289 0.17187,-0.13282 0.35156,-0.28515 0.17188,-0.15235 0.17578,-0.15234 0.34766,-0.32422 0.69921,-0.69922 1.39454,-1.5664 0.17578,-0.20703 0.17578,-0.21094 0.34765,-0.42578 0.69922,-0.86328 1.39453,-1.74219 0.19141,-0.23438 0.1875,-0.23437 0.37891,-0.46094 0.75781,-0.89453 0.1875,-0.21484 0.19141,-0.21485 0.3789,-0.41406 0.75781,-0.78516 0.1875,-0.18359 0.19141,-0.18359 0.37891,-0.34375 0.1875,-0.16407 0.1914,-0.16015 0.375,-0.30469 0.19141,-0.14063 0.1875,-0.13671 0.37891,-0.25391 0.1914,-0.11719 0.1875,-0.11328 0.37891,-0.20312 0.1914,-0.0898 0.1875,-0.0859 0.19141,-0.0781 0.1875,-0.0703 0.19141,-0.0625 0.1875,-0.0586 0.1875,-0.0508 0.1914,-0.043 0.1875,-0.0352 0.19141,-0.0312 0.1875,-0.0234 0.19141,-0.0117 0.1875,-0.0117 h 0.1914 l 0.1875,0.008 0.19141,0.0117 0.1875,0.0195 0.1914,0.0273 0.1875,0.0312 0.19141,0.0391 0.1875,0.0469 0.1875,0.0547 0.19141,0.0586 0.1875,0.0664 0.1914,0.0703 0.1875,0.082 0.19141,0.082 0.1875,0.0898 0.19141,0.0977 0.1875,0.10156 0.3789,0.22266 0.17578,0.10937 0.17969,0.11328 0.35156,0.2461 0.70703,0.53125 0.35157,0.28906 0.35547,0.30469 0.70703,0.63672 0.35156,0.33593 0.35547,0.33985 0.70703,0.70703 1.41016,1.4414 0.17968,0.17969 0.17578,0.1836 0.35157,0.35546 0.70703,0.70313 0.17578,0.17578 0.17969,0.16797 0.35156,0.33594 0.70703,0.64062 0.17578,0.15625 0.17969,0.14844 0.35156,0.29297 0.35156,0.28125 0.35547,0.26562 0.35157,0.25 0.35546,0.23438 0.35157,0.21875 0.35547,0.19922 0.1914,0.10156 0.19141,0.0977 0.1914,0.0898 0.19141,0.0859 0.19141,0.082 0.1914,0.0742 0.19141,0.0664 0.19141,0.0625 0.1914,0.0586 0.19141,0.0508 0.1914,0.0469 0.19141,0.0391 0.38281,0.0625 0.19141,0.0195 0.19141,0.0156 0.1914,0.0117 0.19141,0.004 h 0.1914 l 0.19141,-0.008 0.19141,-0.0117 0.1914,-0.0195 0.38282,-0.0547 0.1914,-0.0352 0.19141,-0.043 0.1914,-0.0469 0.19141,-0.0508 0.19141,-0.0586 0.1914,-0.0625 0.38282,-0.14062 0.1914,-0.0781 0.19141,-0.082 0.38281,-0.17969 0.19141,-0.0977 0.1914,-0.10157 0.38672,-0.21484 0.19141,-0.11328 0.1914,-0.11719 0.38282,-0.24219 0.76562,-0.53125 0.38281,-0.28125 0.38282,-0.29296 0.76562,-0.60547 1.53125,-1.27344 0.1875,-0.15625 0.1875,-0.16016 0.37891,-0.3125 0.75,-0.62109 0.1875,-0.15234 0.5625,-0.44532 0.7539,-0.57031 0.1875,-0.13672 0.1875,-0.13281 0.375,-0.26172 0.19141,-0.125 0.1875,-0.12109 0.375,-0.23438 0.1875,-0.11328 0.1875,-0.10937 0.375,-0.20704 0.19141,-0.0977 0.1875,-0.0937 0.375,-0.17578 0.1875,-0.082 0.1875,-0.0781 0.375,-0.14062 0.1914,-0.0625 0.1875,-0.0625 0.1875,-0.0547 0.1875,-0.0508 0.1875,-0.0469 0.1875,-0.043 0.1875,-0.0391 0.1875,-0.0312 0.19141,-0.0273 0.1875,-0.0234 0.1875,-0.0195 0.1875,-0.0156 0.375,-0.0156 h 0.1875 l 0.1875,0.004 0.19141,0.0117 0.1875,0.0117 0.375,0.0391 0.1875,0.0273 0.1875,0.0312 0.1875,0.0352 0.1875,0.0391 0.1914,0.0469 0.1875,0.0469 0.375,0.10937 0.17578,0.0547 0.17578,0.0586 0.35157,0.12891 0.17187,0.0703 0.17578,0.0703 0.52735,0.23438 0.17578,0.0859 0.35156,0.17578 0.69922,0.3789 0.35156,0.20313 0.35156,0.21094 0.69922,0.4414 1.40235,0.9375 0.17578,0.1211 0.17578,0.11718 0.35156,0.24219 0.69922,0.48047 1.40625,0.93359 0.17188,0.10938 0.17578,0.11328 0.35156,0.21484 0.70312,0.41016 0.17579,0.0977 0.17187,0.0977 0.35156,0.1836 0.70313,0.34375 0.1875,0.0859 0.1914,0.082 0.37891,0.15625 0.38281,0.14062 0.37891,0.12891 0.19141,0.0586 0.1914,0.0547 0.1875,0.0508 0.19141,0.0469 0.1914,0.043 0.1875,0.0391 0.19141,0.0391 0.19141,0.0312 0.1875,0.0273 0.38281,0.0469 0.1875,0.0156 0.38281,0.0234 0.1875,0.004 h 0.38281 l 0.1875,-0.008 0.38282,-0.0234 0.1875,-0.0195 0.1914,-0.0195 0.19141,-0.0273 0.1875,-0.0273 0.38281,-0.0703 0.1875,-0.0391 0.19141,-0.043 0.1914,-0.0469 0.1875,-0.0508 0.38282,-0.10547 0.1914,-0.0625 0.1875,-0.0625 0.38282,-0.13282 0.75781,-0.29687 0.38281,-0.16406 0.37891,-0.17578 0.76172,-0.36719 1.51953,-0.8086 0.17968,-0.0977 0.17579,-0.10156 1.0664,-0.59766 1.41797,-0.78516 0.17969,-0.0977 0.17578,-0.0937 0.35547,-0.1836 0.71094,-0.35547 0.17578,-0.0859 0.17968,-0.082 0.35157,-0.16407 0.71093,-0.30078 0.17969,-0.0703 0.17578,-0.0703 0.35547,-0.12891 0.17578,-0.0625 0.17969,-0.0586 0.35547,-0.11328 0.17578,-0.0508 0.17969,-0.0508 0.35156,-0.0937 0.17969,-0.043 0.17578,-0.0391 0.35547,-0.0703 0.17969,-0.0312 0.17578,-0.0273 0.17968,-0.0273 0.17579,-0.0234 0.17578,-0.0195 0.17968,-0.0195 0.17579,-0.0117 0.17968,-0.0156 0.17578,-0.008 0.17969,-0.008 0.17578,-0.004 h 0.17969 l 0.35156,0.008 0.17969,0.008 0.17578,0.008 0.17578,0.0117 0.17188,0.0156 0.17578,0.0156 0.17187,0.0234 0.17579,0.0195 0.17578,0.0273 0.17187,0.0273 0.17578,0.0273 0.17188,0.0312 0.17578,0.0352 0.34766,0.0781 0.17187,0.0391 0.17578,0.043 0.34766,0.0937 0.17578,0.0469 0.17187,0.0547 0.34766,0.10547 0.69531,0.23828 0.17578,0.0625 0.17188,0.0664 0.35156,0.13282 0.69531,0.28515 0.17188,0.0703 0.17578,0.0781 0.34766,0.14844 0.69531,0.3125 1.39062,0.63672 0.17579,0.082 0.17578,0.0781 0.34765,0.16016 0.69532,0.3125 1.39062,0.58594 0.19141,0.0742 0.1875,0.0742 0.3789,0.14063 0.1875,0.0703 0.1875,0.0664 0.37891,0.125 0.1875,0.0625 0.19141,0.0586 0.375,0.10938 0.1914,0.0547 0.1875,0.0508 0.37891,0.0937 0.375,0.0859 0.1914,0.0391 0.375,0.0703 0.19141,0.0312 0.375,0.0547 0.19141,0.0234 0.1875,0.0234 0.1875,0.0195 0.1914,0.0156 0.1875,0.0156 0.1875,0.0117 0.19141,0.008 0.375,0.008 0.19141,0.004 0.375,-0.008 0.1914,-0.008 0.1875,-0.008 0.1875,-0.0117 0.19141,-0.0117 0.1875,-0.0195 0.1875,-0.0156 0.1914,-0.0234 0.375,-0.0469 0.19141,-0.0312 0.375,-0.0625 0.19141,-0.0352 0.1875,-0.0352 0.3789,-0.082 0.375,-0.0859 0.37891,-0.0937 0.1875,-0.0508 0.19141,-0.0547 0.375,-0.10547 0.75781,-0.23438 0.35156,-0.11718 0.35156,-0.1211 0.70313,-0.25 1.41015,-0.52343 0.35157,-0.13282 0.35547,-0.13281 0.70312,-0.26172 1.41016,-0.5039 0.17578,-0.0625 0.17578,-0.0586 0.35156,-0.11328 0.70703,-0.21875 0.35157,-0.10156 0.35156,-0.0937 0.70312,-0.17578 0.17578,-0.043 0.17969,-0.0391 0.52735,-0.10547 0.17578,-0.0312 0.35156,-0.0586 0.35156,-0.0547 0.17578,-0.0234 0.17969,-0.0195 0.17578,-0.0234 0.52735,-0.0469 0.1914,-0.0156 0.19141,-0.0117 0.38281,-0.0156 0.1875,-0.004 0.19141,-0.004 h 0.38281 l 0.38281,0.008 0.19141,0.008 0.38281,0.0234 0.1875,0.0117 0.19141,0.0156 0.38281,0.0391 0.57422,0.0703 0.1914,0.0273 0.19141,0.0312 0.37891,0.0625 0.38281,0.0703 0.38281,0.0742 0.76172,0.17187 0.38281,0.0937 0.38282,0.0977 0.76562,0.20703 1.52734,0.45313 0.19141,0.0586 0.1875,0.0586 1.14844,0.35157 1.52734,0.45703 0.17578,0.0508 0.17969,0.0508 0.35547,0.10156 0.71484,0.1875 0.17969,0.043 0.17578,0.0469 0.35938,0.082 0.71093,0.15625 0.35938,0.0703 0.35547,0.0664 0.17969,0.0312 0.17578,0.0312 0.35547,0.0547 0.35937,0.0469 0.17578,0.0234 0.35938,0.0391 0.17578,0.0195 0.35937,0.0312 0.17578,0.0117 0.17969,0.0156 0.17969,0.008 0.17578,0.0117 0.17969,0.004 0.17969,0.008 0.17578,0.004 0.17968,0.004 h 0.35547 l 0.17969,-0.004 h 0.17969 l 0.17578,-0.008 0.17969,-0.004 0.17578,-0.008 0.17969,-0.0117 0.17968,-0.008 0.17578,-0.0117 0.35938,-0.0312 0.17578,-0.0156 0.17969,-0.0195 0.35547,-0.0391 0.17968,-0.0195 0.17969,-0.0234 0.35547,-0.0508 0.17969,-0.0273 0.17578,-0.0273 0.35937,-0.0586 0.17188,-0.0312 0.52734,-0.0937 0.69922,-0.14453 1.39844,-0.31641 0.17187,-0.043 0.17579,-0.0391 0.35156,-0.0859 0.69922,-0.17578 1.39843,-0.35547 0.17188,-0.043 0.52734,-0.1289 0.69922,-0.16797 0.17578,-0.0391 0.17188,-0.0391 0.35156,-0.0781 0.69922,-0.15234 0.17578,-0.0352 0.17188,-0.0352 0.35156,-0.0664 0.17578,-0.0312 0.17187,-0.0312 0.35157,-0.0586 0.17578,-0.0312 0.17187,-0.0273 0.35157,-0.0508 0.17578,-0.0234 0.17187,-0.0234 0.35156,-0.043 0.1875,-0.0234 0.38282,-0.0391 0.1875,-0.0156 0.1914,-0.0195 0.1875,-0.0117 0.19141,-0.0156 0.1875,-0.0117 0.19141,-0.0117 0.1875,-0.008 0.38281,-0.0156 0.1875,-0.004 0.1914,-0.004 h 0.1875 l 0.19141,-0.004 0.1875,0.004 h 0.19141 l 0.1875,0.004 0.1914,0.004 0.1875,0.008 0.38282,0.0156 0.1875,0.0117 0.1914,0.0117 0.1875,0.0117 0.19141,0.0156 0.1875,0.0156 0.1914,0.0156 0.1875,0.0195 0.37891,0.0391 0.19141,0.0195 0.1914,0.0234 0.37891,0.0469 0.75781,0.10937 0.1875,0.0312 0.19141,0.0273 1.13672,0.19922 0.1914,0.0352 0.1875,0.0352 0.37891,0.0742 0.76172,0.15235 1.51562,0.3125 0.17578,0.0352 0.17969,0.0391 0.35156,0.0703 0.70704,0.14453 0.17968,0.0352 0.17578,0.0312 0.35547,0.0703 0.70703,0.12891 0.17579,0.0312 0.17968,0.0312 0.35157,0.0586 0.17578,0.0273 0.17968,0.0273 0.35157,0.0547 0.17968,0.0273 0.17579,0.0234 0.35546,0.0469 0.35157,0.0469 0.35547,0.0391 0.35156,0.0391 0.17969,0.0156 0.35156,0.0312 0.17969,0.0156 0.35156,0.0273 0.17969,0.008 0.35156,0.0234 0.17969,0.008 0.17578,0.008 0.17578,0.004 0.17578,0.008 0.17969,0.004 0.17578,0.004 h 0.17578 l 0.17969,0.004 h 0.17578 l 0.17578,-0.004 h 0.17969 l 0.35156,-0.008 0.17969,-0.004 0.17578,-0.004 0.17578,-0.008 0.17969,-0.008 0.17578,-0.008 0.17578,-0.0117 0.17578,-0.008 0.17969,-0.0117 0.1914,-0.0117 0.57422,-0.0469 0.19141,-0.0195 0.19141,-0.0156 0.38671,-0.0391 0.19141,-0.0234 0.19141,-0.0195 0.38281,-0.0469 0.76562,-0.10156 0.19141,-0.0273 0.19531,-0.0273 0.38282,-0.0547 0.76562,-0.11718 1.53516,-0.25391 0.1914,-0.0352 0.19141,-0.0312 0.38281,-0.0664 0.76953,-0.12891 0.76563,-0.125 0.76953,-0.12109 0.19141,-0.0273 0.1914,-0.0312 0.38281,-0.0547 0.76563,-0.10547 0.19141,-0.0234 0.19531,-0.0234 0.38281,-0.0469 0.19141,-0.0195 0.1914,-0.0234 0.38282,-0.0391 0.1875,-0.0156 0.1914,-0.0195 0.5625,-0.0469 0.1875,-0.0117 0.37891,-0.0273 0.1875,-0.008 0.1875,-0.0117 0.1875,-0.008 0.1914,-0.008 0.375,-0.0156 0.1875,-0.004 0.1875,-0.008 0.19141,-0.004 h 0.1875 l 0.1875,-0.004 h 0.56641 l 0.5625,0.0117 0.1914,0.004 0.1875,0.004 0.5625,0.0234 0.19141,0.008 0.375,0.0234 0.1875,0.008 0.37891,0.0273 0.1875,0.0156 0.1875,0.0117 0.375,0.0312 0.1914,0.0195 0.1875,0.0156 0.375,0.0391 0.75391,0.0781 0.1875,0.0234 0.1875,0.0195 0.3789,0.0469 0.75391,0.0937 1.50391,0.20312 0.17578,0.0273 0.52734,0.0703 0.70313,0.0977 0.35156,0.0469 0.35156,0.0508 0.70313,0.0898 0.35156,0.0469 0.35156,0.043 0.70313,0.082 0.17578,0.0195 0.17187,0.0195 1.05469,0.10547 0.35156,0.0312 0.35157,0.0273 0.17578,0.0117 0.17578,0.0156 0.52734,0.0352 0.17578,0.008 0.17578,0.0117 0.87891,0.0391 0.17578,0.004 0.17578,0.008 0.52735,0.0117 h 0.17578 l 0.17578,0.004 h 0.875 l 0.70312,-0.0156 0.19141,-0.004 0.19141,-0.008 0.1914,-0.004 0.1875,-0.008 0.38282,-0.0156 0.3789,-0.0195 0.38281,-0.0234 0.37891,-0.0234 0.19141,-0.0156 0.1914,-0.0117 0.37891,-0.0312 0.38281,-0.0312 0.37891,-0.0312 0.76172,-0.0742 1.52734,-0.16016 0.1875,-0.0195 0.19141,-0.0195 0.38281,-0.043 2.28516,-0.25781 0.1875,-0.0234 0.57421,-0.0586 0.76172,-0.0781 0.1875,-0.0195 0.19141,-0.0156 0.38281,-0.0352 0.76172,-0.0664 0.17578,-0.0156 0.17969,-0.0117 0.35547,-0.0273 0.17578,-0.0117 0.17969,-0.0117 0.35547,-0.0234 0.17578,-0.0117 0.17968,-0.008 0.17969,-0.0117 0.17578,-0.008 0.17969,-0.008 0.17578,-0.008 0.35547,-0.0117 0.17969,-0.008 0.17578,-0.008 0.17969,-0.004 0.17578,-0.004 0.17969,-0.004 0.17578,-0.004 0.17968,-0.004 h 0.17579 l 0.17968,-0.004 h 0.88672 l 0.17969,0.004 h 0.17578 l 0.17969,0.004 0.17578,0.004 0.35937,0.008 0.17579,0.004 0.17968,0.008 0.17578,0.004 0.17969,0.008 0.17578,0.004 0.17969,0.008 0.35547,0.0195 0.17578,0.008 0.17969,0.008 0.35547,0.0195 0.17578,0.0117 0.17969,0.0117 0.35546,0.0195 0.71094,0.0508 0.17578,0.0156 0.17969,0.0117 0.35547,0.0273 0.71094,0.0625 0.17578,0.0117 0.17187,0.0156 0.35157,0.0312 0.69531,0.0664 1.39453,0.12891 0.17578,0.0156 0.17188,0.0156 0.35156,0.0312 0.69531,0.0625 1.39453,0.11719 0.17578,0.0156 0.17188,0.0117 0.35156,0.0273 0.17188,0.0117 0.17578,0.0117 0.34765,0.0234 0.17578,0.0117 0.17188,0.0117 0.35156,0.0195 0.17188,0.008 0.17578,0.0117 0.34765,0.0156 0.17579,0.008 0.17187,0.008 0.35156,0.0156 0.17188,0.008 0.17578,0.004 0.34766,0.0117 0.17578,0.004 0.17187,0.008 0.35156,0.008 h 0.17188 l 0.35156,0.008 h 0.36328 l 0.1875,0.004 h 0.56641 l 0.19141,-0.004 h 0.1875 l 0.1875,-0.004 h 0.1914 l 0.1875,-0.004 0.19141,-0.004 0.1875,-0.004 0.1914,-0.004 0.1875,-0.004 0.1875,-0.008 0.19141,-0.004 0.1875,-0.008 0.19141,-0.008 0.375,-0.0156 0.1914,-0.008 0.1875,-0.008 0.37891,-0.0195 0.19141,-0.008 0.1875,-0.0117 0.3789,-0.0195 0.75391,-0.0469 0.1914,-0.0117 0.1875,-0.0117 0.37891,-0.0273 0.75781,-0.0508 1.51172,-0.11328 0.19141,-0.0156 0.1875,-0.0156 0.3789,-0.0273 0.75391,-0.0586 1.51563,-0.10547 0.35156,-0.0234 0.35547,-0.0234 0.70312,-0.043 0.17578,-0.0117 0.17969,-0.008 0.35156,-0.0195 0.70703,-0.0352 0.70313,-0.0312 0.17969,-0.004 0.17578,-0.008 0.35156,-0.0117 0.35156,-0.008 0.17969,-0.008 0.35156,-0.008 h 0.17578 l 0.17579,-0.004 0.17968,-0.004 h 0.17578 l 0.17579,-0.004 h 0.17578 l 0.17578,-0.004 h 0.88281 l 0.17578,0.004 h 0.17969 l 0.17578,0.004 h 0.17578 l 0.17578,0.004 h 0.17578 l 0.17579,0.004 0.17968,0.004 0.52735,0.0117 0.17578,0.008 0.17578,0.004 0.35547,0.0117 0.17578,0.004 0.17578,0.008 0.35547,0.0156 0.70312,0.0273 0.19922,0.0117 0.19532,0.008 0.39453,0.0195 0.78906,0.043 1.57422,0.0937 0.19922,0.0117 0.19531,0.0117 0.39453,0.0234 0.78906,0.0508 1.57422,0.0937 0.19922,0.0117 0.19531,0.0117 0.39453,0.0234 0.78907,0.043 0.19531,0.008 0.19531,0.0117 0.39453,0.0156 0.78907,0.0352 0.19531,0.008 0.19922,0.008 0.39453,0.0117 0.19531,0.008 0.19922,0.008 0.39453,0.008 0.19531,0.008 0.19532,0.004 0.19921,0.004 0.19532,0.004 0.19922,0.004 0.19531,0.004 h 0.19922 l 0.19531,0.004"
           id="path946" />
      </g>
      <g
         clip-path="url(#clip2-6)"
         clip-rule="nonzero"
         id="g952">
        <path
           style="fill:none;stroke:#000000;stroke-width:2;stroke-linecap:square;stroke-linejoin:miter;stroke-miterlimit:3.25;stroke-opacity:1"
           d="M 575,355.75 H 1"
           id="path950" />
      </g>
      <g
         clip-path="url(#clip3-7)"
         clip-rule="nonzero"
         id="g956">
        <path
           style="fill:none;stroke:#000000;stroke-width:2;stroke-linecap:square;stroke-linejoin:miter;stroke-miterlimit:3.25;stroke-opacity:1"
           d="M 1,355.75 V 1"
           id="path954" />
      </g>
      <path
         style="fill:none;stroke:#000000;stroke-width:2;stroke-linecap:square;stroke-linejoin:miter;stroke-miterlimit:3.25;stroke-opacity:1"
         d="M 1,1 H 575"
         id="path958" />
      <g
         clip-path="url(#clip4)"
         clip-rule="nonzero"
         id="g962">
        <path
           style="fill:none;stroke:#000000;stroke-width:2;stroke-linecap:square;stroke-linejoin:miter;stroke-miterlimit:3.25;stroke-opacity:1"
           d="M 575,1 V 355.75"
           id="path960" />
      </g>
    </g>
    <text
       xml:space="preserve"
       id="text867"
       style="fill:black;fill-opacity:1;stroke:none;font-family:sans-serif;font-style:normal;font-weight:normal;font-size:30px;line-height:1.25;letter-spacing:0px;word-spacing:0px;white-space:pre;shape-inside:url(#rect869);" />
    <text
       xml:space="preserve"
       style="font-style:normal;font-weight:normal;font-size:30px;line-height:1.25;font-family:sans-serif;letter-spacing:0px;word-spacing:0px;fill:#000000;fill-opacity:1;stroke:none;stroke-width:0.75"
       x="257.06277"
       y="279.57727"
       id="text875"><tspan
         sodipodi:role="line"
         id="tspan873"
         x="257.06277"
         y="279.57727"
         style="font-style:normal;font-variant:normal;font-weight:normal;font-stretch:normal;font-size:64px;font-family:'Ekushey Saraswatii';-inkscape-font-specification:'Ekushey Saraswatii';stroke-width:0.75">Q</tspan></text>
    <text
       xml:space="preserve"
       style="font-style:normal;font-weight:normal;font-size:30px;line-height:1.25;font-family:sans-serif;letter-spacing:0px;word-spacing:0px;fill:#000000;fill-opacity:1;stroke:none;stroke-width:0.75"
       x="359.53778"
       y="105.67199"
       id="text879"><tspan
         sodipodi:role="line"
         id="tspan877"
         x="359.53778"
         y="105.67199"
         style="font-style:normal;font-variant:normal;font-weight:normal;font-stretch:normal;font-size:64px;font-family:'Ekushey Saraswatii';-inkscape-font-specification:'Ekushey Saraswatii';stroke-width:0.75">N</tspan></text>
    <text
       xml:space="preserve"
       style="font-style:normal;font-weight:normal;font-size:30px;line-height:1.25;font-family:sans-serif;letter-spacing:0px;word-spacing:0px;fill:#000000;fill-opacity:1;stroke:none;stroke-width:0.75"
       x="458.4902"
       y="285.259"
       id="text883"><tspan
         sodipodi:role="line"
         id="tspan881"
         x="458.4902"
         y="285.259"
         style="font-style:normal;font-variant:normal;font-weight:normal;font-stretch:normal;font-size:64px;font-family:'Ekushey Saraswatii';-inkscape-font-specification:'Ekushey Saraswatii';stroke-width:0.75">M</tspan></text>
  </g>
</svg>
