<?xml version="1.0" encoding="utf-8"?>
<svg xmlns="http://www.w3.org/2000/svg" xmlns:xlink="http://www.w3.org/1999/xlink" width="600" height="400" viewBox="0 0 2400 1600">
<defs>
  <clipPath id="clip970">
    <rect x="0" y="0" width="2400" height="1600"/>
  </clipPath>
</defs>
<path clip-path="url(#clip970)" d="
M0 1600 L2400 1600 L2400 0 L0 0  Z
  " fill="#ffffff" fill-rule="evenodd" fill-opacity="1"/>
<defs>
  <clipPath id="clip971">
    <rect x="480" y="0" width="1681" height="1600"/>
  </clipPath>
</defs>
<path clip-path="url(#clip970)" d="
M212.167 1423.18 L1927.77 1423.18 L1927.77 47.2441 L212.167 47.2441  Z
  " fill="#ffffff" fill-rule="evenodd" fill-opacity="1"/>
<defs>
  <clipPath id="clip972">
    <rect x="212" y="47" width="1717" height="1377"/>
  </clipPath>
</defs>
<polyline clip-path="url(#clip970)" style="stroke:#000000; stroke-linecap:butt; stroke-linejoin:round; stroke-width:4; stroke-opacity:1; fill:none" points="
  212.167,1423.18 1927.77,1423.18 
  "/>
<polyline clip-path="url(#clip970)" style="stroke:#000000; stroke-linecap:butt; stroke-linejoin:round; stroke-width:4; stroke-opacity:1; fill:none" points="
  212.167,47.2441 1927.77,47.2441 
  "/>
<polyline clip-path="url(#clip970)" style="stroke:#000000; stroke-linecap:butt; stroke-linejoin:round; stroke-width:4; stroke-opacity:1; fill:none" points="
  226.224,1423.18 226.224,1404.28 
  "/>
<polyline clip-path="url(#clip970)" style="stroke:#000000; stroke-linecap:butt; stroke-linejoin:round; stroke-width:4; stroke-opacity:1; fill:none" points="
  538.545,1423.18 538.545,1404.28 
  "/>
<polyline clip-path="url(#clip970)" style="stroke:#000000; stroke-linecap:butt; stroke-linejoin:round; stroke-width:4; stroke-opacity:1; fill:none" points="
  850.867,1423.18 850.867,1404.28 
  "/>
<polyline clip-path="url(#clip970)" style="stroke:#000000; stroke-linecap:butt; stroke-linejoin:round; stroke-width:4; stroke-opacity:1; fill:none" points="
  1163.19,1423.18 1163.19,1404.28 
  "/>
<polyline clip-path="url(#clip970)" style="stroke:#000000; stroke-linecap:butt; stroke-linejoin:round; stroke-width:4; stroke-opacity:1; fill:none" points="
  1475.51,1423.18 1475.51,1404.28 
  "/>
<polyline clip-path="url(#clip970)" style="stroke:#000000; stroke-linecap:butt; stroke-linejoin:round; stroke-width:4; stroke-opacity:1; fill:none" points="
  1787.83,1423.18 1787.83,1404.28 
  "/>
<path clip-path="url(#clip970)" d="M215.577 1469.4 Q215.577 1461.96 217.455 1457.91 Q220.073 1451.88 226.249 1451.88 Q227.558 1451.88 228.917 1452.26 Q230.3 1452.6 232.03 1453.96 Q233.783 1455.32 234.846 1457.54 Q236.871 1461.84 236.871 1469.4 Q236.871 1476.79 234.994 1480.81 Q232.252 1486.69 226.2 1486.69 Q223.927 1486.69 221.605 1485.53 Q219.307 1484.37 217.85 1481.58 Q215.577 1477.4 215.577 1469.4 M219.777 1468.78 Q219.777 1476.41 220.32 1479.45 Q220.938 1482.74 222.618 1484.17 Q224.322 1485.58 226.2 1485.58 Q228.225 1485.58 229.905 1484.07 Q231.61 1482.54 232.128 1479.26 Q232.696 1476.02 232.672 1468.78 Q232.672 1461.74 232.178 1458.92 Q231.511 1455.64 229.732 1454.33 Q227.978 1453 226.2 1453 Q225.533 1453 224.816 1453.19 Q224.124 1453.39 223.112 1453.96 Q222.099 1454.53 221.308 1455.94 Q220.542 1457.34 220.172 1459.47 Q219.777 1462.21 219.777 1468.78 Z" fill="#000000" fill-rule="evenodd" fill-opacity="1" /><path clip-path="url(#clip970)" d="M530.196 1456.7 L530.196 1455.12 Q536.273 1455.12 539.41 1451.88 Q540.275 1451.88 540.423 1452.08 Q540.571 1452.28 540.571 1453.19 L540.571 1481.58 Q540.571 1483.08 541.312 1483.55 Q542.053 1484.02 545.289 1484.02 L546.895 1484.02 L546.895 1485.58 Q545.117 1485.43 538.694 1485.43 Q532.271 1485.43 530.517 1485.58 L530.517 1484.02 L532.123 1484.02 Q535.309 1484.02 536.075 1483.58 Q536.841 1483.11 536.841 1481.58 L536.841 1455.37 Q534.198 1456.7 530.196 1456.7 Z" fill="#000000" fill-rule="evenodd" fill-opacity="1" /><path clip-path="url(#clip970)" d="M840.763 1485.58 Q840.763 1484.67 840.837 1484.39 Q840.936 1484.12 841.331 1483.7 L851.04 1472.88 Q856.351 1466.9 856.351 1461.69 Q856.351 1458.31 854.572 1455.89 Q852.818 1453.47 849.582 1453.47 Q847.359 1453.47 845.481 1454.82 Q843.604 1456.18 842.739 1458.6 Q842.888 1458.55 843.406 1458.55 Q844.666 1458.55 845.358 1459.34 Q846.074 1460.14 846.074 1461.2 Q846.074 1462.56 845.185 1463.22 Q844.32 1463.87 843.456 1463.87 Q843.11 1463.87 842.64 1463.79 Q842.196 1463.72 841.479 1463.03 Q840.763 1462.31 840.763 1461.05 Q840.763 1457.52 843.431 1454.7 Q846.124 1451.88 850.224 1451.88 Q854.869 1451.88 857.907 1454.65 Q860.97 1457.39 860.97 1461.69 Q860.97 1463.2 860.501 1464.58 Q860.056 1465.94 859.439 1467 Q858.846 1468.07 857.215 1469.77 Q855.585 1471.47 854.276 1472.68 Q852.966 1473.9 850.027 1476.46 L844.666 1481.68 L853.782 1481.68 Q858.228 1481.68 858.574 1481.28 Q859.068 1480.57 859.686 1476.79 L860.97 1476.79 L859.538 1485.58 L840.763 1485.58 Z" fill="#000000" fill-rule="evenodd" fill-opacity="1" /><path clip-path="url(#clip970)" d="M1152.69 1478.76 Q1152.69 1477.25 1153.55 1476.54 Q1154.42 1475.82 1155.53 1475.82 Q1156.69 1475.82 1157.51 1476.59 Q1158.35 1477.33 1158.35 1478.64 Q1158.35 1480.05 1157.36 1480.84 Q1156.39 1481.63 1155.01 1481.43 Q1156.22 1483.46 1158.44 1484.37 Q1160.69 1485.28 1162.77 1485.28 Q1164.94 1485.28 1166.7 1483.41 Q1168.47 1481.53 1168.47 1476.93 Q1168.47 1473.03 1166.94 1470.78 Q1165.44 1468.53 1162.45 1468.53 L1160.22 1468.53 Q1159.46 1468.53 1159.24 1468.46 Q1159.01 1468.39 1159.01 1467.97 Q1159.01 1467.47 1159.78 1467.37 Q1160.54 1467.37 1161.76 1467.23 Q1164.69 1467.13 1166.25 1464.58 Q1167.66 1462.21 1167.66 1458.83 Q1167.66 1455.74 1166.18 1454.45 Q1164.72 1453.14 1162.82 1453.14 Q1161.04 1453.14 1159.09 1453.89 Q1157.14 1454.63 1156.07 1456.28 Q1159.21 1456.28 1159.21 1458.83 Q1159.21 1459.94 1158.49 1460.68 Q1157.8 1461.4 1156.64 1461.4 Q1155.53 1461.4 1154.79 1460.7 Q1154.05 1459.99 1154.05 1458.78 Q1154.05 1455.89 1156.62 1453.89 Q1159.21 1451.88 1163.02 1451.88 Q1166.77 1451.88 1169.54 1453.86 Q1172.33 1455.84 1172.33 1458.88 Q1172.33 1461.86 1170.35 1464.31 Q1168.38 1466.76 1165.24 1467.77 Q1169.09 1468.53 1171.39 1471.15 Q1173.69 1473.75 1173.69 1476.93 Q1173.69 1480.89 1170.57 1483.8 Q1167.46 1486.69 1162.92 1486.69 Q1158.72 1486.69 1155.7 1484.42 Q1152.69 1482.15 1152.69 1478.76 Z" fill="#000000" fill-rule="evenodd" fill-opacity="1" /><path clip-path="url(#clip970)" d="M1464.29 1477.23 L1464.29 1475.67 L1479.83 1451.93 Q1480.23 1451.32 1480.85 1451.34 Q1481.41 1451.34 1481.54 1451.56 Q1481.66 1451.79 1481.66 1452.65 L1481.66 1475.67 L1486.72 1475.67 L1486.72 1477.23 L1481.66 1477.23 L1481.66 1481.63 Q1481.66 1483.08 1482.25 1483.55 Q1482.87 1484.02 1485.49 1484.02 L1486.55 1484.02 L1486.55 1485.58 Q1484.48 1485.43 1479.68 1485.43 Q1474.92 1485.43 1472.84 1485.58 L1472.84 1484.02 L1473.9 1484.02 Q1476.52 1484.02 1477.14 1483.58 Q1477.76 1483.11 1477.76 1481.63 L1477.76 1477.23 L1464.29 1477.23 M1465.73 1475.67 L1478.05 1475.67 L1478.05 1456.8 L1465.73 1475.67 Z" fill="#000000" fill-rule="evenodd" fill-opacity="1" /><path clip-path="url(#clip970)" d="M1777.73 1477.43 Q1777.73 1475.92 1778.54 1475.35 Q1779.36 1474.76 1780.22 1474.76 Q1781.38 1474.76 1782.05 1475.5 Q1782.74 1476.22 1782.74 1477.23 Q1782.74 1478.24 1782.05 1478.98 Q1781.38 1479.7 1780.22 1479.7 Q1779.65 1479.7 1779.36 1479.6 Q1780.02 1481.92 1782.05 1483.6 Q1784.1 1485.28 1786.79 1485.28 Q1790.18 1485.28 1792.2 1482 Q1793.41 1479.87 1793.41 1475.06 Q1793.41 1470.81 1792.5 1468.68 Q1791.09 1465.45 1788.2 1465.45 Q1784.1 1465.45 1781.68 1468.98 Q1781.38 1469.42 1781.04 1469.45 Q1780.54 1469.45 1780.42 1469.18 Q1780.32 1468.88 1780.32 1468.11 L1780.32 1453.14 Q1780.32 1451.93 1780.81 1451.93 Q1781.01 1451.93 1781.43 1452.08 Q1784.62 1453.49 1788.15 1453.51 Q1791.78 1453.51 1795.04 1452.03 Q1795.29 1451.88 1795.44 1451.88 Q1795.93 1451.88 1795.96 1452.45 Q1795.96 1452.65 1795.54 1453.24 Q1795.14 1453.81 1794.28 1454.58 Q1793.41 1455.32 1792.3 1456.03 Q1791.19 1456.75 1789.56 1457.25 Q1787.95 1457.71 1786.18 1457.71 Q1784.05 1457.71 1781.88 1457.05 L1781.88 1466.9 Q1784.5 1464.33 1788.3 1464.33 Q1792.35 1464.33 1795.14 1467.6 Q1797.93 1470.86 1797.93 1475.4 Q1797.93 1480.17 1794.62 1483.43 Q1791.34 1486.69 1786.89 1486.69 Q1782.84 1486.69 1780.27 1483.8 Q1777.73 1480.91 1777.73 1477.43 Z" fill="#000000" fill-rule="evenodd" fill-opacity="1" /><path clip-path="url(#clip970)" d="M1041.82 1541.97 Q1040.37 1541.87 1039.41 1540.91 Q1039.08 1540.58 1038.76 1539.13 Q1038.44 1537.69 1038.34 1536.36 Q1038.25 1534.63 1037.28 1532.85 Q1036.41 1531.08 1034.51 1531.08 Q1031.71 1531.08 1029.97 1532.92 Q1027.72 1535.08 1025.62 1538.72 Q1025.69 1539.01 1025.82 1540.58 Q1025.94 1542.13 1025.94 1542.74 Q1025.94 1547.28 1025.75 1549.54 Q1029.65 1547.44 1033.32 1546.9 L1041.82 1541.97 M1051.74 1567.6 L1042.95 1574.27 L1038.73 1566.57 Q1038.76 1565.87 1038.79 1564.67 Q1038.86 1563.48 1038.89 1562.52 Q1038.92 1561.52 1038.92 1560.68 Q1038.92 1557.69 1038.57 1555.78 Q1038.25 1553.88 1037.89 1553.31 Q1037.57 1552.73 1037.02 1552.18 Q1035.99 1551.15 1034.48 1550.54 Q1032.97 1549.89 1031.55 1549.89 Q1029.71 1549.89 1025.49 1551.12 Q1025.2 1553.18 1024.69 1555.56 Q1023.4 1560.97 1020.98 1564.64 Q1018.99 1566.25 1015.22 1569.6 Q1011.48 1572.95 1009.91 1574.27 Q1008.59 1572.95 1007.04 1571.89 Q1005.49 1570.79 1004.56 1570.79 Q1001.85 1570.79 999.761 1573.56 L999.021 1572.5 Q999.117 1572.37 999.407 1571.89 Q999.729 1571.4 999.858 1571.21 Q999.987 1571.02 1000.28 1570.57 Q1000.6 1570.12 1000.76 1569.89 Q1000.95 1569.63 1001.24 1569.25 Q1001.56 1568.83 1001.82 1568.57 Q1002.08 1568.28 1002.4 1567.96 Q1002.72 1567.64 1003.05 1567.35 Q1005.14 1565.51 1006.75 1565.51 Q1008.26 1565.51 1009.91 1566.64 Q1011.48 1567.77 1012.93 1569.34 Q1016.6 1566.83 1018.34 1563.39 Q1019.31 1561.49 1019.95 1557.46 Q1020.6 1552.4 1020.6 1548.28 Q1020.6 1546.06 1020.5 1544.48 Q1020.41 1542.9 1019.76 1540.42 Q1019.15 1537.91 1017.96 1536.17 Q1016.6 1534.11 1014.48 1532.76 Q1012.39 1531.41 1010.16 1531.41 Q1008.23 1531.41 1007.17 1531.82 Q1006.14 1532.24 1004.98 1533.4 Q1003.79 1534.53 1003.79 1537.14 Q1003.79 1537.72 1004.53 1538.94 Q1005.3 1540.17 1006.14 1541.1 Q1008.26 1543.8 1008.78 1544.67 Q1009.65 1546.35 1009.65 1547.19 Q1009.65 1549.57 1007.52 1551.92 Q1005.78 1553.88 1001.53 1556.01 L1000.53 1555.27 Q1002.31 1554.3 1003.79 1552.5 Q1004.75 1551.31 1004.75 1549.96 Q1004.75 1549.28 1003.92 1548.15 L1001.85 1545.32 Q1000.47 1543.64 999.793 1542.39 Q999.149 1541.1 999.149 1539.39 Q999.149 1537.59 1000.02 1536.07 Q1000.92 1534.53 1002.53 1532.92 Q1008.2 1527.25 1014.61 1527.25 Q1016.73 1527.25 1018.76 1528.57 Q1020.79 1529.89 1022.43 1531.92 Q1023.85 1533.6 1024.82 1536.36 L1025.08 1536.01 Q1026.81 1533.85 1028.52 1532.15 Q1033.42 1527.25 1038.73 1527.25 Q1041.15 1527.25 1042.56 1528.96 Q1043.59 1530.21 1044.01 1533.53 Q1044.04 1533.82 1044.11 1535.01 Q1044.17 1536.17 1044.33 1536.82 Q1044.46 1537.4 1044.66 1537.75 Q1044.85 1538.07 1045.53 1538.36 Q1046.23 1538.65 1047.46 1538.65 Q1048.33 1538.65 1049.94 1538.39 L1050.42 1539.26 Q1048.1 1540.17 1044.69 1541.97 Q1039.31 1544.74 1036.57 1546.9 Q1038.89 1546.9 1040.37 1547.51 Q1041.85 1548.12 1043.3 1549.34 Q1043.82 1560.74 1044.33 1562.35 Q1045.11 1564.8 1046.14 1566.51 Q1046.17 1566.57 1046.33 1566.8 Q1046.49 1567.02 1046.52 1567.09 Q1046.59 1567.15 1046.72 1567.35 Q1046.88 1567.54 1046.98 1567.6 Q1047.07 1567.67 1047.2 1567.8 Q1047.36 1567.89 1047.52 1567.93 Q1047.68 1567.96 1047.84 1567.96 Q1048.2 1567.96 1051.74 1566.57 L1051.74 1567.6 Z" fill="#000000" fill-rule="evenodd" fill-opacity="1" /><path clip-path="url(#clip970)" d="M1049.66 1556.01 Q1049.66 1544.87 1053.81 1535.88 Q1055.58 1532.11 1058.06 1528.96 Q1060.54 1525.8 1062.18 1524.42 Q1063.83 1523.03 1064.28 1523.03 Q1064.92 1523.03 1064.95 1523.68 Q1064.95 1524 1064.08 1524.8 Q1053.46 1535.62 1053.49 1556.01 Q1053.49 1576.46 1063.83 1586.86 Q1064.95 1587.99 1064.95 1588.35 Q1064.95 1588.99 1064.28 1588.99 Q1063.83 1588.99 1062.25 1587.67 Q1060.67 1586.35 1058.22 1583.32 Q1055.78 1580.29 1054 1576.59 Q1049.66 1567.6 1049.66 1556.01 Z" fill="#000000" fill-rule="evenodd" fill-opacity="1" /><path clip-path="url(#clip970)" d="M1107.62 1547.96 Q1107.62 1550.95 1106.1 1556.75 Q1105.49 1559.26 1104.65 1561.55 Q1103.85 1563.8 1102.66 1565.99 Q1101.47 1568.18 1100.08 1569.76 Q1098.7 1571.31 1096.89 1572.27 Q1095.09 1573.24 1093.09 1573.24 Q1089.94 1573.24 1088.07 1571.37 Q1086.23 1569.47 1085.65 1566.22 Q1081.34 1573.24 1075.57 1573.24 Q1072 1573.24 1070.32 1570.7 Q1068.65 1568.12 1068.65 1563.8 Q1068.65 1560.16 1069.61 1556.4 Q1071.45 1549.25 1075.02 1544.26 Q1075.51 1543.68 1076.22 1543.68 Q1076.63 1543.68 1076.83 1543.8 Q1077.41 1544.16 1077.41 1544.74 Q1077.41 1545.16 1077.09 1545.58 Q1074.83 1548.7 1073.35 1551.37 Q1071.87 1554.05 1071.19 1556.75 Q1070.68 1559.07 1070.68 1561.03 Q1070.68 1564.35 1072.09 1566.41 Q1073.54 1568.47 1076.41 1568.47 Q1079.05 1568.47 1081.37 1566.83 Q1083.69 1565.16 1085.39 1562.35 Q1085.49 1559.3 1086.23 1556.4 Q1086.91 1553.31 1088.49 1553.31 Q1089.74 1553.31 1089.74 1555.01 Q1089.74 1555.59 1089.49 1556.75 Q1088.78 1559.81 1087.49 1562.55 Q1087.94 1565.22 1089.61 1566.86 Q1091.29 1568.47 1093.96 1568.47 Q1096.44 1568.47 1098.63 1566.67 Q1100.85 1564.87 1102.27 1562.23 Q1103.72 1559.55 1104.53 1556.4 Q1104.78 1555.33 1104.78 1553.98 Q1104.78 1550.37 1102.27 1548.15 Q1101.56 1547.44 1101.56 1546.51 Q1101.56 1545.41 1102.46 1544.42 Q1103.53 1543.35 1104.78 1543.35 Q1105.72 1543.35 1106.3 1543.93 Q1107.62 1545.09 1107.62 1547.96 Z" fill="#000000" fill-rule="evenodd" fill-opacity="1" /><path clip-path="url(#clip970)" d="M1115.59 1588.35 Q1115.59 1588.02 1116.43 1587.22 Q1127.06 1576.4 1127.06 1556.01 Q1127.06 1535.56 1116.85 1525.22 Q1115.59 1524.03 1115.59 1523.68 Q1115.59 1523.03 1116.23 1523.03 Q1116.69 1523.03 1118.26 1524.35 Q1119.87 1525.67 1122.29 1528.7 Q1124.74 1531.73 1126.54 1535.43 Q1130.89 1544.42 1130.89 1556.01 Q1130.89 1567.15 1126.73 1576.14 Q1124.96 1579.91 1122.48 1583.06 Q1120 1586.22 1118.36 1587.6 Q1116.72 1588.99 1116.23 1588.99 Q1115.59 1588.99 1115.59 1588.35 Z" fill="#000000" fill-rule="evenodd" fill-opacity="1" /><polyline clip-path="url(#clip970)" style="stroke:#000000; stroke-linecap:butt; stroke-linejoin:round; stroke-width:4; stroke-opacity:1; fill:none" points="
  212.167,1423.18 212.167,47.2441 
  "/>
<polyline clip-path="url(#clip970)" style="stroke:#000000; stroke-linecap:butt; stroke-linejoin:round; stroke-width:4; stroke-opacity:1; fill:none" points="
  1927.77,1423.18 1927.77,47.2441 
  "/>
<polyline clip-path="url(#clip970)" style="stroke:#000000; stroke-linecap:butt; stroke-linejoin:round; stroke-width:4; stroke-opacity:1; fill:none" points="
  212.167,1376.1 227.313,1376.1 
  "/>
<polyline clip-path="url(#clip970)" style="stroke:#000000; stroke-linecap:butt; stroke-linejoin:round; stroke-width:4; stroke-opacity:1; fill:none" points="
  212.167,1160.21 227.313,1160.21 
  "/>
<polyline clip-path="url(#clip970)" style="stroke:#000000; stroke-linecap:butt; stroke-linejoin:round; stroke-width:4; stroke-opacity:1; fill:none" points="
  212.167,944.315 227.313,944.315 
  "/>
<polyline clip-path="url(#clip970)" style="stroke:#000000; stroke-linecap:butt; stroke-linejoin:round; stroke-width:4; stroke-opacity:1; fill:none" points="
  212.167,728.423 227.313,728.423 
  "/>
<polyline clip-path="url(#clip970)" style="stroke:#000000; stroke-linecap:butt; stroke-linejoin:round; stroke-width:4; stroke-opacity:1; fill:none" points="
  212.167,512.532 227.313,512.532 
  "/>
<polyline clip-path="url(#clip970)" style="stroke:#000000; stroke-linecap:butt; stroke-linejoin:round; stroke-width:4; stroke-opacity:1; fill:none" points="
  212.167,296.64 227.313,296.64 
  "/>
<polyline clip-path="url(#clip970)" style="stroke:#000000; stroke-linecap:butt; stroke-linejoin:round; stroke-width:4; stroke-opacity:1; fill:none" points="
  212.167,80.7486 227.313,80.7486 
  "/>
<path clip-path="url(#clip970)" d="M117.595 1377.2 Q117.595 1369.76 119.473 1365.71 Q122.091 1359.68 128.267 1359.68 Q129.576 1359.68 130.935 1360.05 Q132.318 1360.4 134.048 1361.76 Q135.801 1363.12 136.864 1365.34 Q138.889 1369.64 138.889 1377.2 Q138.889 1384.58 137.012 1388.61 Q134.27 1394.49 128.218 1394.49 Q125.945 1394.49 123.623 1393.33 Q121.325 1392.17 119.868 1389.38 Q117.595 1385.2 117.595 1377.2 M121.795 1376.58 Q121.795 1384.21 122.338 1387.25 Q122.956 1390.54 124.636 1391.97 Q126.34 1393.38 128.218 1393.38 Q130.243 1393.38 131.923 1391.87 Q133.628 1390.34 134.146 1387.05 Q134.715 1383.82 134.69 1376.58 Q134.69 1369.54 134.196 1366.72 Q133.529 1363.44 131.75 1362.13 Q129.996 1360.79 128.218 1360.79 Q127.551 1360.79 126.834 1360.99 Q126.142 1361.19 125.13 1361.76 Q124.117 1362.33 123.326 1363.73 Q122.56 1365.14 122.19 1367.27 Q121.795 1370.01 121.795 1376.58 Z" fill="#000000" fill-rule="evenodd" fill-opacity="1" /><path clip-path="url(#clip970)" d="M145.979 1392.56 Q145.213 1391.75 145.213 1390.69 Q145.213 1389.62 145.979 1388.86 Q146.745 1388.07 147.906 1388.07 Q149.018 1388.07 149.759 1388.81 Q150.525 1389.52 150.525 1390.71 Q150.525 1391.87 149.709 1392.64 Q148.919 1393.38 147.906 1393.38 Q146.745 1393.38 145.979 1392.56 Z" fill="#000000" fill-rule="evenodd" fill-opacity="1" /><path clip-path="url(#clip970)" d="M159.467 1364.5 L159.467 1362.92 Q165.544 1362.92 168.682 1359.68 Q169.546 1359.68 169.694 1359.88 Q169.843 1360.08 169.843 1360.99 L169.843 1389.38 Q169.843 1390.88 170.584 1391.35 Q171.325 1391.82 174.561 1391.82 L176.167 1391.82 L176.167 1393.38 Q174.388 1393.23 167.965 1393.23 Q161.542 1393.23 159.788 1393.38 L159.788 1391.82 L161.394 1391.82 Q164.581 1391.82 165.347 1391.38 Q166.113 1390.91 166.113 1389.38 L166.113 1363.17 Q163.469 1364.5 159.467 1364.5 Z" fill="#000000" fill-rule="evenodd" fill-opacity="1" /><path clip-path="url(#clip970)" d="M116.064 1161.31 Q116.064 1153.87 117.941 1149.82 Q120.56 1143.79 126.735 1143.79 Q128.045 1143.79 129.403 1144.16 Q130.787 1144.51 132.516 1145.87 Q134.27 1147.22 135.332 1149.45 Q137.358 1153.75 137.358 1161.31 Q137.358 1168.69 135.48 1172.72 Q132.738 1178.6 126.686 1178.6 Q124.413 1178.6 122.091 1177.44 Q119.794 1176.28 118.336 1173.48 Q116.064 1169.31 116.064 1161.31 M120.263 1160.69 Q120.263 1168.32 120.807 1171.36 Q121.424 1174.65 123.104 1176.08 Q124.808 1177.49 126.686 1177.49 Q128.712 1177.49 130.391 1175.98 Q132.096 1174.45 132.615 1171.16 Q133.183 1167.93 133.158 1160.69 Q133.158 1153.65 132.664 1150.83 Q131.997 1147.55 130.219 1146.24 Q128.465 1144.9 126.686 1144.9 Q126.019 1144.9 125.303 1145.1 Q124.611 1145.3 123.598 1145.87 Q122.585 1146.43 121.795 1147.84 Q121.029 1149.25 120.658 1151.38 Q120.263 1154.12 120.263 1160.69 Z" fill="#000000" fill-rule="evenodd" fill-opacity="1" /><path clip-path="url(#clip970)" d="M144.448 1176.67 Q143.682 1175.86 143.682 1174.79 Q143.682 1173.73 144.448 1172.97 Q145.213 1172.18 146.375 1172.18 Q147.486 1172.18 148.227 1172.92 Q148.993 1173.63 148.993 1174.82 Q148.993 1175.98 148.178 1176.75 Q147.387 1177.49 146.375 1177.49 Q145.213 1177.49 144.448 1176.67 Z" fill="#000000" fill-rule="evenodd" fill-opacity="1" /><path clip-path="url(#clip970)" d="M155.959 1177.49 Q155.959 1176.57 156.034 1176.3 Q156.132 1176.03 156.528 1175.61 L166.236 1164.79 Q171.547 1158.81 171.547 1153.6 Q171.547 1150.21 169.769 1147.79 Q168.015 1145.37 164.779 1145.37 Q162.555 1145.37 160.678 1146.73 Q158.8 1148.09 157.936 1150.51 Q158.084 1150.46 158.603 1150.46 Q159.863 1150.46 160.554 1151.25 Q161.271 1152.04 161.271 1153.1 Q161.271 1154.46 160.381 1155.13 Q159.517 1155.77 158.652 1155.77 Q158.306 1155.77 157.837 1155.7 Q157.392 1155.62 156.676 1154.93 Q155.959 1154.22 155.959 1152.96 Q155.959 1149.42 158.627 1146.61 Q161.32 1143.79 165.421 1143.79 Q170.065 1143.79 173.104 1146.56 Q176.167 1149.3 176.167 1153.6 Q176.167 1155.11 175.697 1156.49 Q175.253 1157.85 174.635 1158.91 Q174.042 1159.97 172.412 1161.68 Q170.781 1163.38 169.472 1164.59 Q168.163 1165.8 165.223 1168.37 L159.863 1173.58 L168.978 1173.58 Q173.425 1173.58 173.771 1173.19 Q174.265 1172.47 174.882 1168.69 L176.167 1168.69 L174.734 1177.49 L155.959 1177.49 Z" fill="#000000" fill-rule="evenodd" fill-opacity="1" /><path clip-path="url(#clip970)" d="M115.668 945.414 Q115.668 937.979 117.546 933.927 Q120.164 927.9 126.34 927.9 Q127.649 927.9 129.008 928.27 Q130.391 928.616 132.121 929.975 Q133.875 931.333 134.937 933.557 Q136.963 937.855 136.963 945.414 Q136.963 952.801 135.085 956.827 Q132.343 962.707 126.291 962.707 Q124.018 962.707 121.696 961.546 Q119.398 960.384 117.941 957.593 Q115.668 953.418 115.668 945.414 M119.868 944.797 Q119.868 952.43 120.411 955.469 Q121.029 958.754 122.709 960.187 Q124.413 961.595 126.291 961.595 Q128.316 961.595 129.996 960.088 Q131.701 958.556 132.219 955.271 Q132.788 952.035 132.763 944.797 Q132.763 937.756 132.269 934.94 Q131.602 931.654 129.823 930.345 Q128.069 929.011 126.291 929.011 Q125.624 929.011 124.907 929.209 Q124.216 929.406 123.203 929.975 Q122.19 930.543 121.399 931.951 Q120.634 933.359 120.263 935.483 Q119.868 938.226 119.868 944.797 Z" fill="#000000" fill-rule="evenodd" fill-opacity="1" /><path clip-path="url(#clip970)" d="M144.052 960.78 Q143.287 959.965 143.287 958.902 Q143.287 957.84 144.052 957.074 Q144.818 956.284 145.979 956.284 Q147.091 956.284 147.832 957.025 Q148.598 957.741 148.598 958.927 Q148.598 960.088 147.783 960.854 Q146.992 961.595 145.979 961.595 Q144.818 961.595 144.052 960.78 Z" fill="#000000" fill-rule="evenodd" fill-opacity="1" /><path clip-path="url(#clip970)" d="M155.169 954.777 Q155.169 953.27 156.034 952.554 Q156.898 951.837 158.01 951.837 Q159.171 951.837 159.986 952.603 Q160.826 953.344 160.826 954.653 Q160.826 956.061 159.838 956.852 Q158.874 957.642 157.491 957.445 Q158.702 959.47 160.925 960.384 Q163.173 961.298 165.248 961.298 Q167.422 961.298 169.176 959.421 Q170.954 957.544 170.954 952.949 Q170.954 949.046 169.423 946.798 Q167.916 944.55 164.927 944.55 L162.703 944.55 Q161.938 944.55 161.715 944.476 Q161.493 944.401 161.493 943.981 Q161.493 943.487 162.259 943.389 Q163.025 943.389 164.235 943.24 Q167.175 943.142 168.731 940.597 Q170.139 938.226 170.139 934.841 Q170.139 931.753 168.657 930.469 Q167.199 929.159 165.297 929.159 Q163.519 929.159 161.567 929.901 Q159.616 930.642 158.553 932.297 Q161.691 932.297 161.691 934.841 Q161.691 935.953 160.974 936.694 Q160.283 937.41 159.121 937.41 Q158.01 937.41 157.269 936.719 Q156.528 936.002 156.528 934.792 Q156.528 931.902 159.097 929.901 Q161.691 927.9 165.495 927.9 Q169.25 927.9 172.017 929.876 Q174.808 931.852 174.808 934.891 Q174.808 937.88 172.832 940.325 Q170.856 942.771 167.718 943.784 Q171.572 944.55 173.869 947.168 Q176.167 949.762 176.167 952.949 Q176.167 956.901 173.054 959.816 Q169.942 962.707 165.396 962.707 Q161.197 962.707 158.183 960.434 Q155.169 958.161 155.169 954.777 Z" fill="#000000" fill-rule="evenodd" fill-opacity="1" /><path clip-path="url(#clip970)" d="M114.952 729.523 Q114.952 722.087 116.829 718.036 Q119.448 712.008 125.624 712.008 Q126.933 712.008 128.292 712.379 Q129.675 712.724 131.404 714.083 Q133.158 715.442 134.22 717.665 Q136.246 721.963 136.246 729.523 Q136.246 736.909 134.369 740.936 Q131.627 746.815 125.574 746.815 Q123.302 746.815 120.979 745.654 Q118.682 744.493 117.225 741.701 Q114.952 737.527 114.952 729.523 M119.151 728.905 Q119.151 736.538 119.695 739.577 Q120.312 742.862 121.992 744.295 Q123.697 745.703 125.574 745.703 Q127.6 745.703 129.28 744.196 Q130.984 742.665 131.503 739.379 Q132.071 736.143 132.047 728.905 Q132.047 721.865 131.553 719.048 Q130.886 715.763 129.107 714.454 Q127.353 713.12 125.574 713.12 Q124.907 713.12 124.191 713.317 Q123.499 713.515 122.486 714.083 Q121.474 714.651 120.683 716.059 Q119.917 717.467 119.547 719.592 Q119.151 722.334 119.151 728.905 Z" fill="#000000" fill-rule="evenodd" fill-opacity="1" /><path clip-path="url(#clip970)" d="M143.336 744.888 Q142.57 744.073 142.57 743.011 Q142.57 741.948 143.336 741.183 Q144.102 740.392 145.263 740.392 Q146.375 740.392 147.116 741.133 Q147.881 741.85 147.881 743.035 Q147.881 744.196 147.066 744.962 Q146.276 745.703 145.263 745.703 Q144.102 745.703 143.336 744.888 Z" fill="#000000" fill-rule="evenodd" fill-opacity="1" /><path clip-path="url(#clip970)" d="M153.736 737.354 L153.736 735.797 L169.275 712.057 Q169.67 711.44 170.287 711.464 Q170.856 711.464 170.979 711.687 Q171.103 711.909 171.103 712.774 L171.103 735.797 L176.167 735.797 L176.167 737.354 L171.103 737.354 L171.103 741.751 Q171.103 743.208 171.695 743.678 Q172.313 744.147 174.932 744.147 L175.994 744.147 L175.994 745.703 Q173.919 745.555 169.126 745.555 Q164.359 745.555 162.283 745.703 L162.283 744.147 L163.346 744.147 Q165.964 744.147 166.582 743.702 Q167.199 743.233 167.199 741.751 L167.199 737.354 L153.736 737.354 M155.169 735.797 L167.496 735.797 L167.496 716.924 L155.169 735.797 Z" fill="#000000" fill-rule="evenodd" fill-opacity="1" /><path clip-path="url(#clip970)" d="M116.064 513.631 Q116.064 506.195 117.941 502.144 Q120.56 496.116 126.735 496.116 Q128.045 496.116 129.403 496.487 Q130.787 496.833 132.516 498.191 Q134.27 499.55 135.332 501.773 Q137.358 506.072 137.358 513.631 Q137.358 521.017 135.48 525.044 Q132.738 530.923 126.686 530.923 Q124.413 530.923 122.091 529.762 Q119.794 528.601 118.336 525.81 Q116.064 521.635 116.064 513.631 M120.263 513.013 Q120.263 520.647 120.807 523.685 Q121.424 526.971 123.104 528.404 Q124.808 529.812 126.686 529.812 Q128.712 529.812 130.391 528.305 Q132.096 526.773 132.615 523.488 Q133.183 520.252 133.158 513.013 Q133.158 505.973 132.664 503.157 Q131.997 499.871 130.219 498.562 Q128.465 497.228 126.686 497.228 Q126.019 497.228 125.303 497.426 Q124.611 497.623 123.598 498.191 Q122.585 498.76 121.795 500.168 Q121.029 501.576 120.658 503.7 Q120.263 506.442 120.263 513.013 Z" fill="#000000" fill-rule="evenodd" fill-opacity="1" /><path clip-path="url(#clip970)" d="M144.448 528.997 Q143.682 528.181 143.682 527.119 Q143.682 526.057 144.448 525.291 Q145.213 524.501 146.375 524.501 Q147.486 524.501 148.227 525.242 Q148.993 525.958 148.993 527.144 Q148.993 528.305 148.178 529.071 Q147.387 529.812 146.375 529.812 Q145.213 529.812 144.448 528.997 Z" fill="#000000" fill-rule="evenodd" fill-opacity="1" /><path clip-path="url(#clip970)" d="M155.959 521.66 Q155.959 520.153 156.775 519.585 Q157.59 518.992 158.454 518.992 Q159.616 518.992 160.283 519.733 Q160.974 520.449 160.974 521.462 Q160.974 522.475 160.283 523.216 Q159.616 523.932 158.454 523.932 Q157.886 523.932 157.59 523.834 Q158.257 526.156 160.283 527.835 Q162.333 529.515 165.026 529.515 Q168.41 529.515 170.436 526.23 Q171.646 524.105 171.646 519.288 Q171.646 515.039 170.732 512.915 Q169.324 509.679 166.434 509.679 Q162.333 509.679 159.912 513.211 Q159.616 513.656 159.27 513.68 Q158.776 513.68 158.652 513.409 Q158.553 513.112 158.553 512.346 L158.553 497.376 Q158.553 496.166 159.047 496.166 Q159.245 496.166 159.665 496.314 Q162.852 497.722 166.384 497.747 Q170.016 497.747 173.276 496.265 Q173.524 496.116 173.672 496.116 Q174.166 496.116 174.191 496.685 Q174.191 496.882 173.771 497.475 Q173.375 498.043 172.511 498.809 Q171.646 499.55 170.534 500.267 Q169.423 500.983 167.792 501.477 Q166.187 501.946 164.408 501.946 Q162.283 501.946 160.11 501.279 L160.11 511.136 Q162.728 508.567 166.532 508.567 Q170.584 508.567 173.375 511.828 Q176.167 515.089 176.167 519.634 Q176.167 524.402 172.857 527.663 Q169.571 530.923 165.124 530.923 Q161.073 530.923 158.504 528.033 Q155.959 525.143 155.959 521.66 Z" fill="#000000" fill-rule="evenodd" fill-opacity="1" /><path clip-path="url(#clip970)" d="M115.668 297.739 Q115.668 290.304 117.546 286.252 Q120.164 280.225 126.34 280.225 Q127.649 280.225 129.008 280.595 Q130.391 280.941 132.121 282.3 Q133.875 283.659 134.937 285.882 Q136.963 290.18 136.963 297.739 Q136.963 305.126 135.085 309.152 Q132.343 315.032 126.291 315.032 Q124.018 315.032 121.696 313.871 Q119.398 312.71 117.941 309.918 Q115.668 305.743 115.668 297.739 M119.868 297.122 Q119.868 304.755 120.411 307.794 Q121.029 311.079 122.709 312.512 Q124.413 313.92 126.291 313.92 Q128.316 313.92 129.996 312.413 Q131.701 310.882 132.219 307.596 Q132.788 304.36 132.763 297.122 Q132.763 290.081 132.269 287.265 Q131.602 283.98 129.823 282.67 Q128.069 281.336 126.291 281.336 Q125.624 281.336 124.907 281.534 Q124.216 281.732 123.203 282.3 Q122.19 282.868 121.399 284.276 Q120.634 285.684 120.263 287.809 Q119.868 290.551 119.868 297.122 Z" fill="#000000" fill-rule="evenodd" fill-opacity="1" /><path clip-path="url(#clip970)" d="M144.052 313.105 Q143.287 312.29 143.287 311.227 Q143.287 310.165 144.052 309.399 Q144.818 308.609 145.979 308.609 Q147.091 308.609 147.832 309.35 Q148.598 310.066 148.598 311.252 Q148.598 312.413 147.783 313.179 Q146.992 313.92 145.979 313.92 Q144.818 313.92 144.052 313.105 Z" fill="#000000" fill-rule="evenodd" fill-opacity="1" /><path clip-path="url(#clip970)" d="M155.169 297.937 Q155.169 289.983 159.22 285.116 Q163.272 280.225 168.484 280.225 Q171.523 280.225 173.202 281.781 Q174.907 283.313 174.907 285.684 Q174.907 286.993 174.141 287.562 Q173.375 288.13 172.585 288.13 Q171.671 288.13 170.954 287.512 Q170.238 286.895 170.238 285.783 Q170.238 283.51 173.029 283.51 Q171.72 281.485 168.583 281.485 Q167.619 281.485 166.631 281.781 Q165.643 282.053 164.359 282.992 Q163.074 283.93 162.086 285.412 Q161.098 286.895 160.406 289.686 Q159.714 292.478 159.714 296.109 L159.714 297.319 Q161.789 292.305 166.038 292.329 Q170.287 292.329 173.227 295.566 Q176.167 298.802 176.167 303.594 Q176.167 308.51 173.104 311.771 Q170.04 315.032 165.742 315.032 Q163.815 315.032 162.061 314.217 Q160.332 313.426 158.702 311.598 Q157.096 309.77 156.132 306.262 Q155.169 302.754 155.169 297.937 M159.813 302.482 Q159.813 307.448 160.727 309.819 Q160.875 310.215 161.197 310.758 Q161.542 311.302 162.111 312.018 Q162.703 312.71 163.667 313.179 Q164.63 313.624 165.742 313.624 Q169.126 313.624 170.757 310.338 Q171.621 308.51 171.621 303.545 Q171.621 298.481 170.707 296.628 Q169.151 293.49 165.989 293.49 Q163.865 293.49 162.382 294.948 Q160.925 296.405 160.357 298.357 Q159.813 300.309 159.813 302.482 Z" fill="#000000" fill-rule="evenodd" fill-opacity="1" /><path clip-path="url(#clip970)" d="M114.26 81.8479 Q114.26 74.4121 116.138 70.3608 Q118.756 64.3332 124.932 64.3332 Q126.241 64.3332 127.6 64.7037 Q128.983 65.0496 130.713 66.4083 Q132.467 67.7669 133.529 69.9902 Q135.554 74.2886 135.554 81.8479 Q135.554 89.2342 133.677 93.2608 Q130.935 99.1402 124.883 99.1402 Q122.61 99.1402 120.288 97.9791 Q117.99 96.8181 116.533 94.0266 Q114.26 89.8517 114.26 81.8479 M118.46 81.2303 Q118.46 88.8636 119.003 91.9021 Q119.621 95.1877 121.301 96.6205 Q123.005 98.0286 124.883 98.0286 Q126.908 98.0286 128.588 96.5216 Q130.293 94.99 130.811 91.7045 Q131.38 88.4684 131.355 81.2303 Q131.355 74.1898 130.861 71.3736 Q130.194 68.0881 128.415 66.7788 Q126.661 65.4448 124.883 65.4448 Q124.216 65.4448 123.499 65.6424 Q122.808 65.8401 121.795 66.4083 Q120.782 66.9764 119.991 68.3845 Q119.226 69.7926 118.855 71.9171 Q118.46 74.6592 118.46 81.2303 Z" fill="#000000" fill-rule="evenodd" fill-opacity="1" /><path clip-path="url(#clip970)" d="M142.644 97.2133 Q141.879 96.3981 141.879 95.3359 Q141.879 94.2736 142.644 93.5078 Q143.41 92.7173 144.571 92.7173 Q145.683 92.7173 146.424 93.4584 Q147.19 94.1748 147.19 95.3606 Q147.19 96.5216 146.375 97.2875 Q145.584 98.0286 144.571 98.0286 Q143.41 98.0286 142.644 97.2133 Z" fill="#000000" fill-rule="evenodd" fill-opacity="1" /><path clip-path="url(#clip970)" d="M154.477 74.2392 L156.132 63.8391 L157.392 63.8391 Q157.54 64.4567 157.787 64.7284 Q158.059 65.0002 159.492 65.2225 Q160.95 65.4448 163.889 65.4448 L176.167 65.4448 Q176.167 66.6059 175.722 67.2235 L168.879 76.8331 Q166.705 79.8716 165.742 85.4792 Q165.174 89.2342 165.198 93.7796 L165.198 96.3487 Q165.198 99.1402 162.852 99.1402 Q160.53 99.1402 160.53 96.3487 Q160.53 86.6897 166.755 77.3271 Q167.422 76.3637 169.867 72.9299 Q172.338 69.4962 172.437 69.348 L161.962 69.348 Q157.368 69.348 156.997 69.6444 Q156.503 70.0891 155.737 74.2392 L154.477 74.2392 Z" fill="#000000" fill-rule="evenodd" fill-opacity="1" /><path clip-path="url(#clip970)" d="M51.0367 788.186 Q51.4232 787.8 51.9707 787.8 Q52.5182 787.8 52.9047 788.186 Q53.2911 788.573 53.2911 789.12 L53.2911 830.408 Q53.2911 830.955 52.9047 831.342 Q52.5182 831.728 51.9707 831.728 Q51.4232 831.728 51.0367 831.342 Q50.6503 830.955 50.6503 830.408 L50.6503 789.12 Q50.6503 788.573 51.0367 788.186 Z" fill="#000000" fill-rule="evenodd" fill-opacity="1" /><path clip-path="url(#clip970)" d="M25.272 747.581 Q29.8453 752.476 32.6472 757.822 L29.5554 766.325 Q28.8147 768.74 28.8147 770.093 Q28.8147 773.346 30.9403 775.375 Q33.5489 777.983 38.3798 779.787 L37.6713 780.914 Q34.5151 779.722 30.2639 777.726 Q27.3332 776.276 25.8517 774.892 Q23.2109 772.605 23.2109 768.644 Q23.2109 765.777 26.7213 758.467 Q27.7519 756.212 27.7519 754.988 Q27.7519 753.378 26.9145 751.897 Q26.1416 750.383 24.2092 748.322 L25.272 747.581 M30.3284 748.837 Q32.1641 750.898 34.5473 752.347 Q35.9644 753.12 37.8645 753.12 Q41.0207 753.12 42.1479 752.927 Q47.8805 752.154 52.2928 752.154 Q59.6679 752.154 63.5648 756.051 Q70.2314 762.718 70.2314 770.093 Q70.2314 772.863 67.0752 776.405 L69.5229 779.916 L68.4601 780.238 Q67.1397 779.272 65.1107 777.468 Q63.0495 775.665 61.6325 774.312 Q60.1832 772.959 60.0222 772.734 Q62.9851 771.349 63.8547 770.898 Q64.7242 770.415 65.3683 769.771 Q66.2057 768.933 66.7532 767.677 Q67.2685 766.389 67.2685 765.198 Q67.2685 763.813 66.7532 762.814 Q66.2379 761.784 65.1751 760.721 Q63.8225 759.368 60.6663 758.531 Q58.3475 757.822 54.8048 757.822 Q51.4554 757.822 46.4313 758.467 Q41.7614 759.014 40.1511 759.014 Q39.4104 759.014 37.9289 758.885 Q32.7438 754.151 29.8775 749.642 L30.3284 748.837 Z" fill="#000000" fill-rule="evenodd" fill-opacity="1" /><path clip-path="url(#clip970)" d="M51.9707 729.957 Q40.8275 729.957 31.842 725.803 Q28.0739 724.031 24.9178 721.551 Q21.7616 719.072 20.3767 717.429 Q18.9919 715.787 18.9919 715.336 Q18.9919 714.692 19.636 714.659 Q19.9581 714.659 20.7632 715.529 Q31.5844 726.157 51.9707 726.125 Q72.4214 726.125 82.8239 715.787 Q83.9511 714.659 84.3054 714.659 Q84.9495 714.659 84.9495 715.336 Q84.9495 715.787 83.6291 717.365 Q82.3086 718.943 79.2813 721.39 Q76.2539 723.838 72.5502 725.609 Q63.5648 729.957 51.9707 729.957 Z" fill="#000000" fill-rule="evenodd" fill-opacity="1" /><path clip-path="url(#clip970)" d="M43.9192 671.997 Q46.9144 671.997 52.7114 673.51 Q55.2235 674.122 57.5101 674.96 Q59.7645 675.765 61.9545 676.956 Q64.1445 678.148 65.7226 679.533 Q67.2685 680.918 68.2347 682.721 Q69.2008 684.525 69.2008 686.522 Q69.2008 689.678 67.3329 691.546 Q65.4327 693.381 62.18 693.961 Q69.2008 698.277 69.2008 704.041 Q69.2008 707.616 66.6566 709.291 Q64.0801 710.966 59.7645 710.966 Q56.1253 710.966 52.3572 710 Q45.2075 708.164 40.2156 704.589 Q39.6358 704.106 39.6358 703.397 Q39.6358 702.979 39.7647 702.785 Q40.1189 702.206 40.6986 702.206 Q41.1173 702.206 41.536 702.528 Q44.66 704.782 47.333 706.264 Q50.0061 707.745 52.7114 708.421 Q55.0303 708.937 56.9948 708.937 Q60.312 708.937 62.3732 707.52 Q64.4344 706.07 64.4344 703.204 Q64.4344 700.563 62.7919 698.244 Q61.1172 695.926 58.3152 694.219 Q55.2557 694.122 52.3572 693.381 Q49.2654 692.705 49.2654 691.127 Q49.2654 689.871 50.9723 689.871 Q51.552 689.871 52.7114 690.129 Q55.771 690.837 58.5085 692.125 Q61.1816 691.674 62.8241 690 Q64.4344 688.325 64.4344 685.652 Q64.4344 683.172 62.6308 680.982 Q60.8273 678.76 58.1864 677.343 Q55.5133 675.894 52.3572 675.088 Q51.2944 674.831 49.9417 674.831 Q46.3347 674.831 44.1125 677.343 Q43.4039 678.051 42.47 678.051 Q41.375 678.051 40.3766 677.15 Q39.3138 676.087 39.3138 674.831 Q39.3138 673.897 39.8935 673.317 Q41.0529 671.997 43.9192 671.997 Z" fill="#000000" fill-rule="evenodd" fill-opacity="1" /><path clip-path="url(#clip970)" d="M84.3054 664.023 Q83.9833 664.023 83.1782 663.186 Q72.357 652.558 51.9707 652.558 Q31.52 652.558 21.1819 662.767 Q19.9903 664.023 19.636 664.023 Q18.9919 664.023 18.9919 663.379 Q18.9919 662.928 20.3123 661.35 Q21.6328 659.74 24.6601 657.324 Q27.6875 654.877 31.3911 653.073 Q40.3766 648.725 51.9707 648.725 Q63.1139 648.725 72.0994 652.88 Q75.8674 654.651 79.0236 657.131 Q82.1798 659.611 83.5646 661.253 Q84.9495 662.896 84.9495 663.379 Q84.9495 664.023 84.3054 664.023 Z" fill="#000000" fill-rule="evenodd" fill-opacity="1" /><circle clip-path="url(#clip972)" cx="260.722" cy="1365.53" r="14" fill="#ff0000" fill-rule="evenodd" fill-opacity="1" stroke="#000000" stroke-opacity="1" stroke-width="3.2"/>
<circle clip-path="url(#clip972)" cx="317.714" cy="1381.15" r="14" fill="#ff0000" fill-rule="evenodd" fill-opacity="1" stroke="#000000" stroke-opacity="1" stroke-width="3.2"/>
<circle clip-path="url(#clip972)" cx="377.276" cy="1383.1" r="14" fill="#ff0000" fill-rule="evenodd" fill-opacity="1" stroke="#000000" stroke-opacity="1" stroke-width="3.2"/>
<circle clip-path="url(#clip972)" cx="437.155" cy="1383.66" r="14" fill="#ff0000" fill-rule="evenodd" fill-opacity="1" stroke="#000000" stroke-opacity="1" stroke-width="3.2"/>
<circle clip-path="url(#clip972)" cx="497.137" cy="1383.89" r="14" fill="#ff0000" fill-rule="evenodd" fill-opacity="1" stroke="#000000" stroke-opacity="1" stroke-width="3.2"/>
<circle clip-path="url(#clip972)" cx="557.163" cy="1384.01" r="14" fill="#ff0000" fill-rule="evenodd" fill-opacity="1" stroke="#000000" stroke-opacity="1" stroke-width="3.2"/>
<circle clip-path="url(#clip972)" cx="617.215" cy="1384.08" r="14" fill="#ff0000" fill-rule="evenodd" fill-opacity="1" stroke="#000000" stroke-opacity="1" stroke-width="3.2"/>
<circle clip-path="url(#clip972)" cx="677.281" cy="1384.12" r="14" fill="#ff0000" fill-rule="evenodd" fill-opacity="1" stroke="#000000" stroke-opacity="1" stroke-width="3.2"/>
<circle clip-path="url(#clip972)" cx="737.357" cy="1384.15" r="14" fill="#ff0000" fill-rule="evenodd" fill-opacity="1" stroke="#000000" stroke-opacity="1" stroke-width="3.2"/>
<circle clip-path="url(#clip972)" cx="797.439" cy="1384.17" r="14" fill="#ff0000" fill-rule="evenodd" fill-opacity="1" stroke="#000000" stroke-opacity="1" stroke-width="3.2"/>
<circle clip-path="url(#clip972)" cx="857.525" cy="1384.18" r="14" fill="#ff0000" fill-rule="evenodd" fill-opacity="1" stroke="#000000" stroke-opacity="1" stroke-width="3.2"/>
<circle clip-path="url(#clip972)" cx="917.616" cy="1384.19" r="14" fill="#ff0000" fill-rule="evenodd" fill-opacity="1" stroke="#000000" stroke-opacity="1" stroke-width="3.2"/>
<circle clip-path="url(#clip972)" cx="977.708" cy="1384.2" r="14" fill="#ff0000" fill-rule="evenodd" fill-opacity="1" stroke="#000000" stroke-opacity="1" stroke-width="3.2"/>
<circle clip-path="url(#clip972)" cx="1037.8" cy="1384.21" r="14" fill="#ff0000" fill-rule="evenodd" fill-opacity="1" stroke="#000000" stroke-opacity="1" stroke-width="3.2"/>
<circle clip-path="url(#clip972)" cx="1097.9" cy="1384.21" r="14" fill="#ff0000" fill-rule="evenodd" fill-opacity="1" stroke="#000000" stroke-opacity="1" stroke-width="3.2"/>
<circle clip-path="url(#clip972)" cx="1158" cy="1384.22" r="14" fill="#ff0000" fill-rule="evenodd" fill-opacity="1" stroke="#000000" stroke-opacity="1" stroke-width="3.2"/>
<circle clip-path="url(#clip972)" cx="1218.1" cy="1384.22" r="14" fill="#ff0000" fill-rule="evenodd" fill-opacity="1" stroke="#000000" stroke-opacity="1" stroke-width="3.2"/>
<circle clip-path="url(#clip972)" cx="1278.19" cy="1384.22" r="14" fill="#ff0000" fill-rule="evenodd" fill-opacity="1" stroke="#000000" stroke-opacity="1" stroke-width="3.2"/>
<circle clip-path="url(#clip972)" cx="1338.3" cy="1384.23" r="14" fill="#ff0000" fill-rule="evenodd" fill-opacity="1" stroke="#000000" stroke-opacity="1" stroke-width="3.2"/>
<circle clip-path="url(#clip972)" cx="1398.4" cy="1384.23" r="14" fill="#ff0000" fill-rule="evenodd" fill-opacity="1" stroke="#000000" stroke-opacity="1" stroke-width="3.2"/>
<circle clip-path="url(#clip972)" cx="1458.5" cy="1384.23" r="14" fill="#ff0000" fill-rule="evenodd" fill-opacity="1" stroke="#000000" stroke-opacity="1" stroke-width="3.2"/>
<circle clip-path="url(#clip972)" cx="1518.6" cy="1384.23" r="14" fill="#ff0000" fill-rule="evenodd" fill-opacity="1" stroke="#000000" stroke-opacity="1" stroke-width="3.2"/>
<circle clip-path="url(#clip972)" cx="1578.7" cy="1384.23" r="14" fill="#ff0000" fill-rule="evenodd" fill-opacity="1" stroke="#000000" stroke-opacity="1" stroke-width="3.2"/>
<circle clip-path="url(#clip972)" cx="1638.8" cy="1384.23" r="14" fill="#ff0000" fill-rule="evenodd" fill-opacity="1" stroke="#000000" stroke-opacity="1" stroke-width="3.2"/>
<circle clip-path="url(#clip972)" cx="1698.91" cy="1384.24" r="14" fill="#ff0000" fill-rule="evenodd" fill-opacity="1" stroke="#000000" stroke-opacity="1" stroke-width="3.2"/>
<circle clip-path="url(#clip972)" cx="1759.01" cy="1384.24" r="14" fill="#ff0000" fill-rule="evenodd" fill-opacity="1" stroke="#000000" stroke-opacity="1" stroke-width="3.2"/>
<circle clip-path="url(#clip972)" cx="1819.11" cy="1384.24" r="14" fill="#ff0000" fill-rule="evenodd" fill-opacity="1" stroke="#000000" stroke-opacity="1" stroke-width="3.2"/>
<circle clip-path="url(#clip972)" cx="1879.22" cy="1384.24" r="14" fill="#ff0000" fill-rule="evenodd" fill-opacity="1" stroke="#000000" stroke-opacity="1" stroke-width="3.2"/>
<circle clip-path="url(#clip972)" cx="371.095" cy="953.806" r="14" fill="#000000" fill-rule="evenodd" fill-opacity="1" stroke="none"/>
<circle clip-path="url(#clip972)" cx="432.566" cy="960.971" r="14" fill="#000000" fill-rule="evenodd" fill-opacity="1" stroke="none"/>
<circle clip-path="url(#clip972)" cx="493.511" cy="964.013" r="14" fill="#000000" fill-rule="evenodd" fill-opacity="1" stroke="none"/>
<circle clip-path="url(#clip972)" cx="554.174" cy="965.571" r="14" fill="#000000" fill-rule="evenodd" fill-opacity="1" stroke="none"/>
<circle clip-path="url(#clip972)" cx="614.674" cy="966.473" r="14" fill="#000000" fill-rule="evenodd" fill-opacity="1" stroke="none"/>
<circle clip-path="url(#clip972)" cx="675.073" cy="967.041" r="14" fill="#000000" fill-rule="evenodd" fill-opacity="1" stroke="none"/>
<circle clip-path="url(#clip972)" cx="735.405" cy="967.422" r="14" fill="#000000" fill-rule="evenodd" fill-opacity="1" stroke="none"/>
<circle clip-path="url(#clip972)" cx="795.69" cy="967.689" r="14" fill="#000000" fill-rule="evenodd" fill-opacity="1" stroke="none"/>
<circle clip-path="url(#clip972)" cx="855.942" cy="967.884" r="14" fill="#000000" fill-rule="evenodd" fill-opacity="1" stroke="none"/>
<circle clip-path="url(#clip972)" cx="916.169" cy="968.03" r="14" fill="#000000" fill-rule="evenodd" fill-opacity="1" stroke="none"/>
<circle clip-path="url(#clip972)" cx="976.377" cy="968.143" r="14" fill="#000000" fill-rule="evenodd" fill-opacity="1" stroke="none"/>
<circle clip-path="url(#clip972)" cx="1036.57" cy="968.231" r="14" fill="#000000" fill-rule="evenodd" fill-opacity="1" stroke="none"/>
<circle clip-path="url(#clip972)" cx="1096.75" cy="968.302" r="14" fill="#000000" fill-rule="evenodd" fill-opacity="1" stroke="none"/>
<circle clip-path="url(#clip972)" cx="1156.92" cy="968.36" r="14" fill="#000000" fill-rule="evenodd" fill-opacity="1" stroke="none"/>
<circle clip-path="url(#clip972)" cx="1217.09" cy="968.407" r="14" fill="#000000" fill-rule="evenodd" fill-opacity="1" stroke="none"/>
<circle clip-path="url(#clip972)" cx="1277.24" cy="968.447" r="14" fill="#000000" fill-rule="evenodd" fill-opacity="1" stroke="none"/>
<circle clip-path="url(#clip972)" cx="1337.39" cy="968.48" r="14" fill="#000000" fill-rule="evenodd" fill-opacity="1" stroke="none"/>
<circle clip-path="url(#clip972)" cx="1397.54" cy="968.509" r="14" fill="#000000" fill-rule="evenodd" fill-opacity="1" stroke="none"/>
<circle clip-path="url(#clip972)" cx="1457.68" cy="968.533" r="14" fill="#000000" fill-rule="evenodd" fill-opacity="1" stroke="none"/>
<circle clip-path="url(#clip972)" cx="1517.82" cy="968.554" r="14" fill="#000000" fill-rule="evenodd" fill-opacity="1" stroke="none"/>
<circle clip-path="url(#clip972)" cx="1577.96" cy="968.572" r="14" fill="#000000" fill-rule="evenodd" fill-opacity="1" stroke="none"/>
<circle clip-path="url(#clip972)" cx="1638.09" cy="968.588" r="14" fill="#000000" fill-rule="evenodd" fill-opacity="1" stroke="none"/>
<circle clip-path="url(#clip972)" cx="1698.23" cy="968.602" r="14" fill="#000000" fill-rule="evenodd" fill-opacity="1" stroke="none"/>
<circle clip-path="url(#clip972)" cx="1758.36" cy="968.615" r="14" fill="#000000" fill-rule="evenodd" fill-opacity="1" stroke="none"/>
<circle clip-path="url(#clip972)" cx="1818.48" cy="968.626" r="14" fill="#000000" fill-rule="evenodd" fill-opacity="1" stroke="none"/>
<circle clip-path="url(#clip972)" cx="1878.61" cy="968.636" r="14" fill="#000000" fill-rule="evenodd" fill-opacity="1" stroke="none"/>
<circle clip-path="url(#clip972)" cx="424.119" cy="521.15" r="14" fill="#0000ff" fill-rule="evenodd" fill-opacity="1" stroke="#000000" stroke-opacity="1" stroke-width="3.2"/>
<circle clip-path="url(#clip972)" cx="486.604" cy="533.419" r="14" fill="#0000ff" fill-rule="evenodd" fill-opacity="1" stroke="#000000" stroke-opacity="1" stroke-width="3.2"/>
<circle clip-path="url(#clip972)" cx="548.383" cy="539.854" r="14" fill="#0000ff" fill-rule="evenodd" fill-opacity="1" stroke="#000000" stroke-opacity="1" stroke-width="3.2"/>
<circle clip-path="url(#clip972)" cx="609.706" cy="543.616" r="14" fill="#0000ff" fill-rule="evenodd" fill-opacity="1" stroke="#000000" stroke-opacity="1" stroke-width="3.2"/>
<circle clip-path="url(#clip972)" cx="670.731" cy="545.998" r="14" fill="#0000ff" fill-rule="evenodd" fill-opacity="1" stroke="#000000" stroke-opacity="1" stroke-width="3.2"/>
<circle clip-path="url(#clip972)" cx="731.552" cy="547.599" r="14" fill="#0000ff" fill-rule="evenodd" fill-opacity="1" stroke="#000000" stroke-opacity="1" stroke-width="3.2"/>
<circle clip-path="url(#clip972)" cx="792.229" cy="548.726" r="14" fill="#0000ff" fill-rule="evenodd" fill-opacity="1" stroke="#000000" stroke-opacity="1" stroke-width="3.2"/>
<circle clip-path="url(#clip972)" cx="852.802" cy="549.549" r="14" fill="#0000ff" fill-rule="evenodd" fill-opacity="1" stroke="#000000" stroke-opacity="1" stroke-width="3.2"/>
<circle clip-path="url(#clip972)" cx="913.295" cy="550.167" r="14" fill="#0000ff" fill-rule="evenodd" fill-opacity="1" stroke="#000000" stroke-opacity="1" stroke-width="3.2"/>
<circle clip-path="url(#clip972)" cx="973.729" cy="550.644" r="14" fill="#0000ff" fill-rule="evenodd" fill-opacity="1" stroke="#000000" stroke-opacity="1" stroke-width="3.2"/>
<circle clip-path="url(#clip972)" cx="1034.11" cy="551.019" r="14" fill="#0000ff" fill-rule="evenodd" fill-opacity="1" stroke="#000000" stroke-opacity="1" stroke-width="3.2"/>
<circle clip-path="url(#clip972)" cx="1094.46" cy="551.32" r="14" fill="#0000ff" fill-rule="evenodd" fill-opacity="1" stroke="#000000" stroke-opacity="1" stroke-width="3.2"/>
<circle clip-path="url(#clip972)" cx="1154.78" cy="551.564" r="14" fill="#0000ff" fill-rule="evenodd" fill-opacity="1" stroke="#000000" stroke-opacity="1" stroke-width="3.2"/>
<circle clip-path="url(#clip972)" cx="1215.07" cy="551.765" r="14" fill="#0000ff" fill-rule="evenodd" fill-opacity="1" stroke="#000000" stroke-opacity="1" stroke-width="3.2"/>
<circle clip-path="url(#clip972)" cx="1275.34" cy="551.933" r="14" fill="#0000ff" fill-rule="evenodd" fill-opacity="1" stroke="#000000" stroke-opacity="1" stroke-width="3.2"/>
<circle clip-path="url(#clip972)" cx="1335.6" cy="552.075" r="14" fill="#0000ff" fill-rule="evenodd" fill-opacity="1" stroke="#000000" stroke-opacity="1" stroke-width="3.2"/>
<circle clip-path="url(#clip972)" cx="1395.83" cy="552.195" r="14" fill="#0000ff" fill-rule="evenodd" fill-opacity="1" stroke="#000000" stroke-opacity="1" stroke-width="3.2"/>
<circle clip-path="url(#clip972)" cx="1456.06" cy="552.298" r="14" fill="#0000ff" fill-rule="evenodd" fill-opacity="1" stroke="#000000" stroke-opacity="1" stroke-width="3.2"/>
<circle clip-path="url(#clip972)" cx="1516.27" cy="552.388" r="14" fill="#0000ff" fill-rule="evenodd" fill-opacity="1" stroke="#000000" stroke-opacity="1" stroke-width="3.2"/>
<circle clip-path="url(#clip972)" cx="1576.48" cy="552.465" r="14" fill="#0000ff" fill-rule="evenodd" fill-opacity="1" stroke="#000000" stroke-opacity="1" stroke-width="3.2"/>
<circle clip-path="url(#clip972)" cx="1636.68" cy="552.533" r="14" fill="#0000ff" fill-rule="evenodd" fill-opacity="1" stroke="#000000" stroke-opacity="1" stroke-width="3.2"/>
<circle clip-path="url(#clip972)" cx="1696.87" cy="552.593" r="14" fill="#0000ff" fill-rule="evenodd" fill-opacity="1" stroke="#000000" stroke-opacity="1" stroke-width="3.2"/>
<circle clip-path="url(#clip972)" cx="1757.05" cy="552.646" r="14" fill="#0000ff" fill-rule="evenodd" fill-opacity="1" stroke="#000000" stroke-opacity="1" stroke-width="3.2"/>
<circle clip-path="url(#clip972)" cx="1817.23" cy="552.693" r="14" fill="#0000ff" fill-rule="evenodd" fill-opacity="1" stroke="#000000" stroke-opacity="1" stroke-width="3.2"/>
<circle clip-path="url(#clip972)" cx="1877.4" cy="552.735" r="14" fill="#0000ff" fill-rule="evenodd" fill-opacity="1" stroke="#000000" stroke-opacity="1" stroke-width="3.2"/>
<circle clip-path="url(#clip972)" cx="477.108" cy="86.1857" r="14" fill="#008000" fill-rule="evenodd" fill-opacity="1" stroke="#000000" stroke-opacity="1" stroke-width="3.2"/>
<circle clip-path="url(#clip972)" cx="540.171" cy="102.494" r="14" fill="#008000" fill-rule="evenodd" fill-opacity="1" stroke="#000000" stroke-opacity="1" stroke-width="3.2"/>
<circle clip-path="url(#clip972)" cx="602.54" cy="112.236" r="14" fill="#008000" fill-rule="evenodd" fill-opacity="1" stroke="#000000" stroke-opacity="1" stroke-width="3.2"/>
<circle clip-path="url(#clip972)" cx="664.403" cy="118.471" r="14" fill="#008000" fill-rule="evenodd" fill-opacity="1" stroke="#000000" stroke-opacity="1" stroke-width="3.2"/>
<circle clip-path="url(#clip972)" cx="725.899" cy="122.689" r="14" fill="#008000" fill-rule="evenodd" fill-opacity="1" stroke="#000000" stroke-opacity="1" stroke-width="3.2"/>
<circle clip-path="url(#clip972)" cx="787.128" cy="125.668" r="14" fill="#008000" fill-rule="evenodd" fill-opacity="1" stroke="#000000" stroke-opacity="1" stroke-width="3.2"/>
<circle clip-path="url(#clip972)" cx="848.158" cy="127.849" r="14" fill="#008000" fill-rule="evenodd" fill-opacity="1" stroke="#000000" stroke-opacity="1" stroke-width="3.2"/>
<circle clip-path="url(#clip972)" cx="909.036" cy="129.491" r="14" fill="#008000" fill-rule="evenodd" fill-opacity="1" stroke="#000000" stroke-opacity="1" stroke-width="3.2"/>
<circle clip-path="url(#clip972)" cx="969.797" cy="130.76" r="14" fill="#008000" fill-rule="evenodd" fill-opacity="1" stroke="#000000" stroke-opacity="1" stroke-width="3.2"/>
<circle clip-path="url(#clip972)" cx="1030.46" cy="131.758" r="14" fill="#008000" fill-rule="evenodd" fill-opacity="1" stroke="#000000" stroke-opacity="1" stroke-width="3.2"/>
<circle clip-path="url(#clip972)" cx="1091.06" cy="132.559" r="14" fill="#008000" fill-rule="evenodd" fill-opacity="1" stroke="#000000" stroke-opacity="1" stroke-width="3.2"/>
<circle clip-path="url(#clip972)" cx="1151.59" cy="133.211" r="14" fill="#008000" fill-rule="evenodd" fill-opacity="1" stroke="#000000" stroke-opacity="1" stroke-width="3.2"/>
<circle clip-path="url(#clip972)" cx="1212.07" cy="133.748" r="14" fill="#008000" fill-rule="evenodd" fill-opacity="1" stroke="#000000" stroke-opacity="1" stroke-width="3.2"/>
<circle clip-path="url(#clip972)" cx="1272.51" cy="134.196" r="14" fill="#008000" fill-rule="evenodd" fill-opacity="1" stroke="#000000" stroke-opacity="1" stroke-width="3.2"/>
<circle clip-path="url(#clip972)" cx="1332.91" cy="134.574" r="14" fill="#008000" fill-rule="evenodd" fill-opacity="1" stroke="#000000" stroke-opacity="1" stroke-width="3.2"/>
<circle clip-path="url(#clip972)" cx="1393.29" cy="134.895" r="14" fill="#008000" fill-rule="evenodd" fill-opacity="1" stroke="#000000" stroke-opacity="1" stroke-width="3.2"/>
<circle clip-path="url(#clip972)" cx="1453.63" cy="135.171" r="14" fill="#008000" fill-rule="evenodd" fill-opacity="1" stroke="#000000" stroke-opacity="1" stroke-width="3.2"/>
<circle clip-path="url(#clip972)" cx="1513.96" cy="135.409" r="14" fill="#008000" fill-rule="evenodd" fill-opacity="1" stroke="#000000" stroke-opacity="1" stroke-width="3.2"/>
<circle clip-path="url(#clip972)" cx="1574.27" cy="135.616" r="14" fill="#008000" fill-rule="evenodd" fill-opacity="1" stroke="#000000" stroke-opacity="1" stroke-width="3.2"/>
<circle clip-path="url(#clip972)" cx="1634.56" cy="135.798" r="14" fill="#008000" fill-rule="evenodd" fill-opacity="1" stroke="#000000" stroke-opacity="1" stroke-width="3.2"/>
<circle clip-path="url(#clip972)" cx="1694.83" cy="135.957" r="14" fill="#008000" fill-rule="evenodd" fill-opacity="1" stroke="#000000" stroke-opacity="1" stroke-width="3.2"/>
<circle clip-path="url(#clip972)" cx="1755.09" cy="136.099" r="14" fill="#008000" fill-rule="evenodd" fill-opacity="1" stroke="#000000" stroke-opacity="1" stroke-width="3.2"/>
<circle clip-path="url(#clip972)" cx="1815.34" cy="136.224" r="14" fill="#008000" fill-rule="evenodd" fill-opacity="1" stroke="#000000" stroke-opacity="1" stroke-width="3.2"/>
<circle clip-path="url(#clip972)" cx="1875.58" cy="136.336" r="14" fill="#008000" fill-rule="evenodd" fill-opacity="1" stroke="#000000" stroke-opacity="1" stroke-width="3.2"/>
<path clip-path="url(#clip970)" d="
M1999.12 352.309 L2352.76 352.309 L2352.76 93.1086 L1999.12 93.1086  Z
  " fill="#ffffff" fill-rule="evenodd" fill-opacity="1"/>
<polyline clip-path="url(#clip970)" style="stroke:#000000; stroke-linecap:butt; stroke-linejoin:round; stroke-width:4; stroke-opacity:1; fill:none" points="
  1999.12,352.309 2352.76,352.309 2352.76,93.1086 1999.12,93.1086 1999.12,352.309 
  "/>
<circle clip-path="url(#clip970)" cx="2094.26" cy="144.949" r="23" fill="#ff0000" fill-rule="evenodd" fill-opacity="1" stroke="#000000" stroke-opacity="1" stroke-width="5.12"/>
<path clip-path="url(#clip970)" d="M2215.4 160.295 Q2215.4 160.482 2215.19 161.208 Q2214.98 161.934 2214.46 163.059 Q2213.97 164.183 2213.29 165.213 Q2212.61 166.221 2211.49 166.97 Q2210.39 167.696 2209.12 167.696 Q2207.43 167.696 2206.31 166.572 Q2205.19 165.448 2205.19 163.761 Q2205.19 162.824 2205.68 161.536 Q2208.79 153.221 2208.79 150.364 Q2208.79 147.014 2206.19 147.014 Q2204.91 147.014 2203.69 147.506 Q2202.49 147.975 2201.67 148.63 Q2200.85 149.286 2200.1 150.2 Q2199.38 151.09 2199 151.699 Q2198.65 152.284 2198.37 152.87 L2197.76 155.259 Q2197.62 155.915 2196.94 158.468 L2195.89 162.801 Q2195.14 166.033 2194.97 166.338 Q2194.74 166.994 2194.22 167.345 Q2193.71 167.696 2193.19 167.696 Q2192.61 167.696 2192.21 167.345 Q2191.81 166.994 2191.81 166.385 Q2191.81 166.291 2191.88 165.94 Q2191.95 165.588 2192.07 165.096 Q2192.19 164.604 2192.23 164.323 L2195.02 153.245 Q2195.54 151.23 2195.65 150.598 Q2195.79 149.942 2195.79 149.216 Q2195.79 147.014 2194.29 147.014 Q2193.08 147.014 2192.28 148.466 Q2191.48 149.919 2190.8 152.729 Q2190.59 153.502 2190.45 153.666 Q2190.34 153.83 2189.98 153.83 Q2189.4 153.807 2189.4 153.338 Q2189.4 153.221 2189.59 152.448 Q2189.77 151.675 2190.13 150.574 Q2190.5 149.45 2190.85 148.701 Q2191.16 148.138 2191.32 147.881 Q2191.51 147.6 2191.95 147.061 Q2192.42 146.499 2193.03 146.241 Q2193.66 145.96 2194.44 145.96 Q2196.17 145.96 2197.43 147.084 Q2198.7 148.185 2198.86 150.129 Q2201.98 145.96 2206.33 145.96 Q2208.91 145.96 2210.39 147.319 Q2211.86 148.677 2211.86 151.09 Q2211.86 151.652 2211.74 152.378 Q2211.65 153.081 2211.42 153.971 Q2211.21 154.861 2211.02 155.54 Q2210.83 156.219 2210.46 157.32 Q2210.08 158.398 2209.92 158.866 Q2209.75 159.334 2209.36 160.435 Q2208.98 161.513 2208.93 161.63 Q2208.07 163.808 2208.07 165.049 Q2208.07 165.869 2208.32 166.244 Q2208.61 166.619 2209.21 166.619 Q2210.85 166.619 2212.07 165.003 Q2213.31 163.363 2214.11 160.693 Q2214.3 160.107 2214.39 159.967 Q2214.51 159.826 2214.84 159.826 Q2215.4 159.826 2215.4 160.295 Z" fill="#000000" fill-rule="evenodd" fill-opacity="1" /><path clip-path="url(#clip970)" d="M2231.19 159.873 Q2231.23 159.288 2232.15 159.288 L2261.54 159.288 Q2262.92 159.288 2262.95 159.826 Q2262.95 160.412 2261.63 160.388 L2232.47 160.388 Q2231.19 160.412 2231.19 159.873 M2231.19 150.504 Q2231.19 149.919 2232.19 149.942 L2261.49 149.942 Q2262.92 149.942 2262.95 150.504 Q2262.95 151.043 2261.73 151.043 L2232.15 151.043 Q2231.19 151.043 2231.19 150.504 Z" fill="#000000" fill-rule="evenodd" fill-opacity="1" /><path clip-path="url(#clip970)" d="M2281.44 151.816 Q2281.44 144.766 2283.22 140.924 Q2285.7 135.209 2291.56 135.209 Q2292.8 135.209 2294.09 135.561 Q2295.4 135.889 2297.04 137.177 Q2298.7 138.465 2299.71 140.573 Q2301.63 144.649 2301.63 151.816 Q2301.63 158.819 2299.85 162.637 Q2297.25 168.212 2291.51 168.212 Q2289.35 168.212 2287.15 167.111 Q2284.97 166.01 2283.59 163.363 Q2281.44 159.405 2281.44 151.816 M2285.42 151.23 Q2285.42 158.468 2285.93 161.349 Q2286.52 164.464 2288.11 165.822 Q2289.73 167.157 2291.51 167.157 Q2293.43 167.157 2295.02 165.729 Q2296.64 164.277 2297.13 161.161 Q2297.67 158.093 2297.65 151.23 Q2297.65 144.555 2297.18 141.885 Q2296.54 138.769 2294.86 137.528 Q2293.2 136.263 2291.51 136.263 Q2290.88 136.263 2290.2 136.451 Q2289.54 136.638 2288.58 137.177 Q2287.62 137.715 2286.87 139.051 Q2286.15 140.386 2285.79 142.4 Q2285.42 145 2285.42 151.23 Z" fill="#000000" fill-rule="evenodd" fill-opacity="1" /><circle clip-path="url(#clip970)" cx="2094.26" cy="196.789" r="23" fill="#000000" fill-rule="evenodd" fill-opacity="1" stroke="none"/>
<path clip-path="url(#clip970)" d="M2215.4 212.393 Q2215.4 212.58 2215.19 213.306 Q2214.98 214.032 2214.46 215.156 Q2213.97 216.281 2213.29 217.311 Q2212.61 218.318 2211.49 219.068 Q2210.39 219.794 2209.12 219.794 Q2207.43 219.794 2206.31 218.67 Q2205.19 217.545 2205.19 215.859 Q2205.19 214.922 2205.68 213.634 Q2208.79 205.319 2208.79 202.461 Q2208.79 199.112 2206.19 199.112 Q2204.91 199.112 2203.69 199.604 Q2202.49 200.072 2201.67 200.728 Q2200.85 201.384 2200.1 202.297 Q2199.38 203.188 2199 203.796 Q2198.65 204.382 2198.37 204.968 L2197.76 207.357 Q2197.62 208.013 2196.94 210.566 L2195.89 214.899 Q2195.14 218.131 2194.97 218.436 Q2194.74 219.091 2194.22 219.443 Q2193.71 219.794 2193.19 219.794 Q2192.61 219.794 2192.21 219.443 Q2191.81 219.091 2191.81 218.482 Q2191.81 218.389 2191.88 218.037 Q2191.95 217.686 2192.07 217.194 Q2192.19 216.702 2192.23 216.421 L2195.02 205.342 Q2195.54 203.328 2195.65 202.696 Q2195.79 202.04 2195.79 201.314 Q2195.79 199.112 2194.29 199.112 Q2193.08 199.112 2192.28 200.564 Q2191.48 202.016 2190.8 204.827 Q2190.59 205.6 2190.45 205.764 Q2190.34 205.928 2189.98 205.928 Q2189.4 205.905 2189.4 205.436 Q2189.4 205.319 2189.59 204.546 Q2189.77 203.773 2190.13 202.672 Q2190.5 201.548 2190.85 200.798 Q2191.16 200.236 2191.32 199.979 Q2191.51 199.698 2191.95 199.159 Q2192.42 198.597 2193.03 198.339 Q2193.66 198.058 2194.44 198.058 Q2196.17 198.058 2197.43 199.182 Q2198.7 200.283 2198.86 202.227 Q2201.98 198.058 2206.33 198.058 Q2208.91 198.058 2210.39 199.416 Q2211.86 200.775 2211.86 203.188 Q2211.86 203.75 2211.74 204.476 Q2211.65 205.178 2211.42 206.068 Q2211.21 206.959 2211.02 207.638 Q2210.83 208.317 2210.46 209.418 Q2210.08 210.495 2209.92 210.964 Q2209.75 211.432 2209.36 212.533 Q2208.98 213.61 2208.93 213.728 Q2208.07 215.906 2208.07 217.147 Q2208.07 217.967 2208.32 218.342 Q2208.61 218.717 2209.21 218.717 Q2210.85 218.717 2212.07 217.1 Q2213.31 215.461 2214.11 212.791 Q2214.3 212.205 2214.39 212.065 Q2214.51 211.924 2214.84 211.924 Q2215.4 211.924 2215.4 212.393 Z" fill="#000000" fill-rule="evenodd" fill-opacity="1" /><path clip-path="url(#clip970)" d="M2231.19 211.971 Q2231.23 211.385 2232.15 211.385 L2261.54 211.385 Q2262.92 211.385 2262.95 211.924 Q2262.95 212.51 2261.63 212.486 L2232.47 212.486 Q2231.19 212.51 2231.19 211.971 M2231.19 202.602 Q2231.19 202.016 2232.19 202.04 L2261.49 202.04 Q2262.92 202.04 2262.95 202.602 Q2262.95 203.141 2261.73 203.141 L2232.15 203.141 Q2231.19 203.141 2231.19 202.602 Z" fill="#000000" fill-rule="evenodd" fill-opacity="1" /><path clip-path="url(#clip970)" d="M2281.44 191.874 L2281.44 190.375 Q2287.2 190.375 2290.17 187.307 Q2290.99 187.307 2291.13 187.494 Q2291.27 187.682 2291.27 188.548 L2291.27 215.461 Q2291.27 216.89 2291.98 217.335 Q2292.68 217.78 2295.75 217.78 L2297.27 217.78 L2297.27 219.255 Q2295.58 219.115 2289.49 219.115 Q2283.4 219.115 2281.74 219.255 L2281.74 217.78 L2283.26 217.78 Q2286.29 217.78 2287.01 217.358 Q2287.74 216.913 2287.74 215.461 L2287.74 190.61 Q2285.23 191.874 2281.44 191.874 Z" fill="#000000" fill-rule="evenodd" fill-opacity="1" /><circle clip-path="url(#clip970)" cx="2094.26" cy="248.629" r="23" fill="#0000ff" fill-rule="evenodd" fill-opacity="1" stroke="#000000" stroke-opacity="1" stroke-width="5.12"/>
<path clip-path="url(#clip970)" d="M2215.4 264.233 Q2215.4 264.42 2215.19 265.146 Q2214.98 265.872 2214.46 266.996 Q2213.97 268.121 2213.29 269.151 Q2212.61 270.158 2211.49 270.908 Q2210.39 271.634 2209.12 271.634 Q2207.43 271.634 2206.31 270.51 Q2205.19 269.385 2205.19 267.699 Q2205.19 266.762 2205.68 265.474 Q2208.79 257.159 2208.79 254.301 Q2208.79 250.952 2206.19 250.952 Q2204.91 250.952 2203.69 251.444 Q2202.49 251.912 2201.67 252.568 Q2200.85 253.224 2200.1 254.137 Q2199.38 255.028 2199 255.636 Q2198.65 256.222 2198.37 256.808 L2197.76 259.197 Q2197.62 259.853 2196.94 262.406 L2195.89 266.739 Q2195.14 269.971 2194.97 270.276 Q2194.74 270.931 2194.22 271.283 Q2193.71 271.634 2193.19 271.634 Q2192.61 271.634 2192.21 271.283 Q2191.81 270.931 2191.81 270.322 Q2191.81 270.229 2191.88 269.877 Q2191.95 269.526 2192.07 269.034 Q2192.19 268.542 2192.23 268.261 L2195.02 257.182 Q2195.54 255.168 2195.65 254.536 Q2195.79 253.88 2195.79 253.154 Q2195.79 250.952 2194.29 250.952 Q2193.08 250.952 2192.28 252.404 Q2191.48 253.856 2190.8 256.667 Q2190.59 257.44 2190.45 257.604 Q2190.34 257.768 2189.98 257.768 Q2189.4 257.745 2189.4 257.276 Q2189.4 257.159 2189.59 256.386 Q2189.77 255.613 2190.13 254.512 Q2190.5 253.388 2190.85 252.638 Q2191.16 252.076 2191.32 251.819 Q2191.51 251.538 2191.95 250.999 Q2192.42 250.437 2193.03 250.179 Q2193.66 249.898 2194.44 249.898 Q2196.17 249.898 2197.43 251.022 Q2198.7 252.123 2198.86 254.067 Q2201.98 249.898 2206.33 249.898 Q2208.91 249.898 2210.39 251.256 Q2211.86 252.615 2211.86 255.028 Q2211.86 255.59 2211.74 256.316 Q2211.65 257.018 2211.42 257.908 Q2211.21 258.799 2211.02 259.478 Q2210.83 260.157 2210.46 261.258 Q2210.08 262.335 2209.92 262.804 Q2209.75 263.272 2209.36 264.373 Q2208.98 265.45 2208.93 265.568 Q2208.07 267.746 2208.07 268.987 Q2208.07 269.807 2208.32 270.182 Q2208.61 270.557 2209.21 270.557 Q2210.85 270.557 2212.07 268.94 Q2213.31 267.301 2214.11 264.631 Q2214.3 264.045 2214.39 263.905 Q2214.51 263.764 2214.84 263.764 Q2215.4 263.764 2215.4 264.233 Z" fill="#000000" fill-rule="evenodd" fill-opacity="1" /><path clip-path="url(#clip970)" d="M2231.19 263.811 Q2231.23 263.225 2232.15 263.225 L2261.54 263.225 Q2262.92 263.225 2262.95 263.764 Q2262.95 264.35 2261.63 264.326 L2232.47 264.326 Q2231.19 264.35 2231.19 263.811 M2231.19 254.442 Q2231.19 253.856 2232.19 253.88 L2261.49 253.88 Q2262.92 253.88 2262.95 254.442 Q2262.95 254.981 2261.73 254.981 L2232.15 254.981 Q2231.19 254.981 2231.19 254.442 Z" fill="#000000" fill-rule="evenodd" fill-opacity="1" /><path clip-path="url(#clip970)" d="M2281.44 271.095 Q2281.44 270.229 2281.51 269.971 Q2281.6 269.713 2281.98 269.315 L2291.18 259.056 Q2296.22 253.388 2296.22 248.446 Q2296.22 245.237 2294.53 242.942 Q2292.87 240.646 2289.8 240.646 Q2287.69 240.646 2285.91 241.934 Q2284.13 243.223 2283.31 245.518 Q2283.45 245.471 2283.94 245.471 Q2285.14 245.471 2285.79 246.221 Q2286.47 246.97 2286.47 247.977 Q2286.47 249.266 2285.63 249.898 Q2284.81 250.507 2283.99 250.507 Q2283.66 250.507 2283.22 250.437 Q2282.8 250.366 2282.12 249.711 Q2281.44 249.031 2281.44 247.837 Q2281.44 244.487 2283.97 241.817 Q2286.52 239.147 2290.41 239.147 Q2294.81 239.147 2297.69 241.77 Q2300.6 244.37 2300.6 248.446 Q2300.6 249.875 2300.15 251.186 Q2299.73 252.474 2299.14 253.482 Q2298.58 254.489 2297.04 256.105 Q2295.49 257.721 2294.25 258.869 Q2293.01 260.016 2290.22 262.452 L2285.14 267.395 L2293.78 267.395 Q2298 267.395 2298.32 267.02 Q2298.79 266.341 2299.38 262.757 L2300.6 262.757 L2299.24 271.095 L2281.44 271.095 Z" fill="#000000" fill-rule="evenodd" fill-opacity="1" /><circle clip-path="url(#clip970)" cx="2094.26" cy="300.469" r="23" fill="#008000" fill-rule="evenodd" fill-opacity="1" stroke="#000000" stroke-opacity="1" stroke-width="5.12"/>
<path clip-path="url(#clip970)" d="M2215.4 315.815 Q2215.4 316.002 2215.19 316.728 Q2214.98 317.454 2214.46 318.579 Q2213.97 319.703 2213.29 320.733 Q2212.61 321.741 2211.49 322.49 Q2210.39 323.216 2209.12 323.216 Q2207.43 323.216 2206.31 322.092 Q2205.19 320.968 2205.19 319.281 Q2205.19 318.344 2205.68 317.056 Q2208.79 308.741 2208.79 305.884 Q2208.79 302.534 2206.19 302.534 Q2204.91 302.534 2203.69 303.026 Q2202.49 303.495 2201.67 304.15 Q2200.85 304.806 2200.1 305.72 Q2199.38 306.61 2199 307.219 Q2198.65 307.804 2198.37 308.39 L2197.76 310.779 Q2197.62 311.435 2196.94 313.988 L2195.89 318.321 Q2195.14 321.553 2194.97 321.858 Q2194.74 322.514 2194.22 322.865 Q2193.71 323.216 2193.19 323.216 Q2192.61 323.216 2192.21 322.865 Q2191.81 322.514 2191.81 321.905 Q2191.81 321.811 2191.88 321.46 Q2191.95 321.108 2192.07 320.616 Q2192.19 320.124 2192.23 319.843 L2195.02 308.765 Q2195.54 306.75 2195.65 306.118 Q2195.79 305.462 2195.79 304.736 Q2195.79 302.534 2194.29 302.534 Q2193.08 302.534 2192.28 303.986 Q2191.48 305.439 2190.8 308.249 Q2190.59 309.022 2190.45 309.186 Q2190.34 309.35 2189.98 309.35 Q2189.4 309.327 2189.4 308.858 Q2189.4 308.741 2189.59 307.968 Q2189.77 307.195 2190.13 306.094 Q2190.5 304.97 2190.85 304.221 Q2191.16 303.658 2191.32 303.401 Q2191.51 303.12 2191.95 302.581 Q2192.42 302.019 2193.03 301.761 Q2193.66 301.48 2194.44 301.48 Q2196.17 301.48 2197.43 302.604 Q2198.7 303.705 2198.86 305.649 Q2201.98 301.48 2206.33 301.48 Q2208.91 301.48 2210.39 302.839 Q2211.86 304.197 2211.86 306.61 Q2211.86 307.172 2211.74 307.898 Q2211.65 308.601 2211.42 309.491 Q2211.21 310.381 2211.02 311.06 Q2210.83 311.739 2210.46 312.84 Q2210.08 313.918 2209.92 314.386 Q2209.75 314.854 2209.36 315.955 Q2208.98 317.033 2208.93 317.15 Q2208.07 319.328 2208.07 320.569 Q2208.07 321.389 2208.32 321.764 Q2208.61 322.139 2209.21 322.139 Q2210.85 322.139 2212.07 320.523 Q2213.31 318.883 2214.11 316.213 Q2214.3 315.627 2214.39 315.487 Q2214.51 315.346 2214.84 315.346 Q2215.4 315.346 2215.4 315.815 Z" fill="#000000" fill-rule="evenodd" fill-opacity="1" /><path clip-path="url(#clip970)" d="M2231.19 315.393 Q2231.23 314.808 2232.15 314.808 L2261.54 314.808 Q2262.92 314.808 2262.95 315.346 Q2262.95 315.932 2261.63 315.908 L2232.47 315.908 Q2231.19 315.932 2231.19 315.393 M2231.19 306.024 Q2231.19 305.439 2232.19 305.462 L2261.49 305.462 Q2262.92 305.462 2262.95 306.024 Q2262.95 306.563 2261.73 306.563 L2232.15 306.563 Q2231.19 306.563 2231.19 306.024 Z" fill="#000000" fill-rule="evenodd" fill-opacity="1" /><path clip-path="url(#clip970)" d="M2281.44 316.213 Q2281.44 314.784 2282.26 314.105 Q2283.08 313.426 2284.13 313.426 Q2285.23 313.426 2286 314.152 Q2286.8 314.854 2286.8 316.096 Q2286.8 317.431 2285.86 318.18 Q2284.95 318.93 2283.64 318.743 Q2284.79 320.663 2286.89 321.53 Q2289.03 322.396 2290.99 322.396 Q2293.05 322.396 2294.72 320.616 Q2296.4 318.836 2296.4 314.48 Q2296.4 310.779 2294.95 308.647 Q2293.52 306.516 2290.69 306.516 L2288.58 306.516 Q2287.86 306.516 2287.64 306.446 Q2287.43 306.375 2287.43 305.977 Q2287.43 305.509 2288.16 305.415 Q2288.89 305.415 2290.03 305.275 Q2292.82 305.181 2294.3 302.768 Q2295.63 300.52 2295.63 297.311 Q2295.63 294.383 2294.23 293.165 Q2292.84 291.924 2291.04 291.924 Q2289.35 291.924 2287.5 292.626 Q2285.65 293.329 2284.65 294.898 Q2287.62 294.898 2287.62 297.311 Q2287.62 298.365 2286.94 299.068 Q2286.29 299.747 2285.18 299.747 Q2284.13 299.747 2283.43 299.091 Q2282.73 298.412 2282.73 297.264 Q2282.73 294.524 2285.16 292.626 Q2287.62 290.729 2291.23 290.729 Q2294.79 290.729 2297.41 292.603 Q2300.06 294.477 2300.06 297.358 Q2300.06 300.192 2298.18 302.511 Q2296.31 304.83 2293.34 305.79 Q2296.99 306.516 2299.17 308.999 Q2301.35 311.458 2301.35 314.48 Q2301.35 318.227 2298.4 320.991 Q2295.44 323.732 2291.13 323.732 Q2287.15 323.732 2284.29 321.577 Q2281.44 319.422 2281.44 316.213 Z" fill="#000000" fill-rule="evenodd" fill-opacity="1" /></svg>
