<?xml version="1.0" encoding="UTF-8" standalone="no"?>
<!DOCTYPE svg PUBLIC "-//W3C//DTD SVG 1.1//EN"
 "http://www.w3.org/Graphics/SVG/1.1/DTD/svg11.dtd">
<!-- Generated by graphviz version 2.44.1 (0)
 -->
<!-- Title: types Pages: 1 -->
<svg width="497pt" height="188pt"
 viewBox="0.00 0.00 497.08 188.00" xmlns="http://www.w3.org/2000/svg" xmlns:xlink="http://www.w3.org/1999/xlink">
<g id="graph0" class="graph" transform="scale(1 1) rotate(0) translate(4 184)">
<title>types</title>
<polygon fill="white" stroke="transparent" points="-4,4 -4,-184 493.08,-184 493.08,4 -4,4"/>
<!-- AIMProblem -->
<g id="node1" class="node">
<title>AIMProblem</title>
<ellipse fill="none" stroke="black" cx="263.54" cy="-162" rx="68.79" ry="18"/>
<text text-anchor="middle" x="263.54" y="-158.3" font-family="Times,serif" font-size="14.00">AIMProblem</text>
</g>
<!-- AnalyticAIMProblem -->
<g id="node2" class="node">
<title>AnalyticAIMProblem</title>
<ellipse fill="none" stroke="black" cx="147.54" cy="-90" rx="106.68" ry="18"/>
<text text-anchor="middle" x="147.54" y="-86.3" font-family="Times,serif" font-size="14.00">AnalyticAIMProblem</text>
</g>
<!-- AIMProblem&#45;&gt;AnalyticAIMProblem -->
<g id="edge1" class="edge">
<title>AIMProblem&#45;&gt;AnalyticAIMProblem</title>
<path fill="none" stroke="black" d="M237.5,-145.29C221.69,-135.75 201.27,-123.42 183.88,-112.93"/>
<polygon fill="black" stroke="black" points="185.47,-109.8 175.1,-107.63 181.85,-115.8 185.47,-109.8"/>
</g>
<!-- NumericAIMProblem -->
<g id="node3" class="node">
<title>NumericAIMProblem</title>
<ellipse fill="none" stroke="black" cx="380.54" cy="-90" rx="108.58" ry="18"/>
<text text-anchor="middle" x="380.54" y="-86.3" font-family="Times,serif" font-size="14.00">NumericAIMProblem</text>
</g>
<!-- AIMProblem&#45;&gt;NumericAIMProblem -->
<g id="edge2" class="edge">
<title>AIMProblem&#45;&gt;NumericAIMProblem</title>
<path fill="none" stroke="black" d="M289.79,-145.29C305.74,-135.75 326.34,-123.42 343.88,-112.93"/>
<polygon fill="black" stroke="black" points="345.95,-115.77 352.74,-107.63 342.36,-109.76 345.95,-115.77"/>
</g>
<!-- QuadraticEigenvalueProblem -->
<g id="node4" class="node">
<title>QuadraticEigenvalueProblem</title>
<ellipse fill="none" stroke="black" cx="147.54" cy="-18" rx="147.57" ry="18"/>
<text text-anchor="middle" x="147.54" y="-14.3" font-family="Times,serif" font-size="14.00">QuadraticEigenvalueProblem</text>
</g>
<!-- AnalyticAIMProblem&#45;&gt;QuadraticEigenvalueProblem -->
<g id="edge3" class="edge">
<title>AnalyticAIMProblem&#45;&gt;QuadraticEigenvalueProblem</title>
<path fill="none" stroke="black" d="M147.54,-71.7C147.54,-63.98 147.54,-54.71 147.54,-46.11"/>
<polygon fill="black" stroke="black" points="151.04,-46.1 147.54,-36.1 144.04,-46.1 151.04,-46.1"/>
</g>
</g>
</svg>
